<?xml version="1.0" encoding="UTF-8" standalone="no"?>
<!-- Generator: Adobe Illustrator 26.3.1, SVG Export Plug-In . SVG Version: 6.00 Build 0)  -->

<svg
   version="1.1"
   id="Layer_1"
   x="0px"
   y="0px"
   viewBox="0 0 396 396"
   style="enable-background:new 0 0 396 396;"
   xml:space="preserve"
   sodipodi:docname="LOGO-ADVOCATE-HOSPICE-H - Copy.svgz"
   xmlns:inkscape="http://www.inkscape.org/namespaces/inkscape"
   xmlns:sodipodi="http://sodipodi.sourceforge.net/DTD/sodipodi-0.dtd"
   xmlns="http://www.w3.org/2000/svg"
   xmlns:svg="http://www.w3.org/2000/svg"><defs
   id="defs96" /><sodipodi:namedview
   id="namedview94"
   pagecolor="#ffffff"
   bordercolor="#666666"
   borderopacity="1.0"
   inkscape:pageshadow="2"
   inkscape:pageopacity="0.0"
   inkscape:pagecheckerboard="0" />
<style
   type="text/css"
   id="style2">
	.st0{fill:url(#SVGID_1_);}
	.st1{fill:#FFFFFF;}
	.st2{fill:#231F20;}
</style>
<linearGradient
   id="SVGID_1_"
   gradientUnits="userSpaceOnUse"
   x1="18.6879"
   y1="198"
   x2="90.4712"
   y2="198">
	<stop
   offset="0"
   style="stop-color:#264086"
   id="stop4" />
	<stop
   offset="0.3268"
   style="stop-color:#1C71B0"
   id="stop6" />
	<stop
   offset="0.5894"
   style="stop-color:#1597D0"
   id="stop8" />
	<stop
   offset="0.7626"
   style="stop-color:#18AEE4"
   id="stop10" />
	<stop
   offset="1"
   style="stop-color:#1EBAED"
   id="stop12" />
</linearGradient>
<path
   class="st0"
   d="M84.23,235.48h-59.3c-3.45,0-6.24-2.8-6.24-6.24v-62.48c0-3.45,2.8-6.24,6.24-6.24h59.3  c3.45,0,6.24,2.8,6.24,6.24v62.48C90.47,232.69,87.68,235.48,84.23,235.48z"
   id="path15" />
<g
   id="g21">
	<path
   class="st1"
   d="M86.95,191.38c0-0.01,0-0.02,0-0.03c0-0.11,0-0.21-0.01-0.32c0,0,0,0,0,0c0-0.03,0-0.06,0-0.1   c0-0.02,0-0.04,0-0.06c0-0.08,0-0.18,0-0.26c0-0.04-0.01-0.08-0.02-0.12c-0.18-0.47-0.7-0.37-1.11-0.44   c-0.02,0-0.04-0.01-0.06-0.01c-0.07-0.01-0.14-0.03-0.21-0.04c-0.03-0.01-0.07-0.01-0.1-0.02c-0.04-0.01-0.09-0.02-0.13-0.02   c0,0,0,0,0,0c-0.02,0-0.05-0.01-0.07-0.01c-0.05-0.01-0.1,0-0.15,0c-0.05,0-0.1,0-0.14,0c-0.16-0.01-0.2-0.09-0.32-0.15   c-0.01-0.01-0.02-0.01-0.03-0.02c-0.06-0.03-0.13-0.04-0.2-0.06c-0.03-0.01-0.06-0.01-0.09-0.02c-0.07-0.02-0.15-0.03-0.21-0.06   c-0.12-0.04-0.25-0.07-0.37-0.12c-0.01,0-0.01,0-0.02-0.01c-0.08-0.03-0.15-0.06-0.23-0.09c-0.08-0.03-0.16-0.06-0.25-0.09   c-0.02-0.01-0.03-0.01-0.05-0.02c-0.1-0.05-0.21-0.11-0.32-0.17c-0.07-0.03-0.13-0.07-0.2-0.09c-0.02-0.01-0.04-0.01-0.06-0.01   c-0.11-0.03-0.24-0.03-0.38-0.03c-0.07,0-0.13,0-0.2,0.01c-0.09,0.01-0.18,0.01-0.27,0.02c-0.01,0-0.03,0-0.04,0   c-0.03,0-0.07,0-0.1,0c-0.09,0-0.18,0-0.28,0.01c-0.02,0-0.04,0-0.06,0c-0.3,0.03-0.6,0.08-0.89,0.12   c-0.27,0.04-0.56,0.02-0.84,0.02c-0.04,0-0.08,0-0.12,0c-0.02,0-0.04,0-0.06,0c-0.01,0-0.03,0-0.04,0   c-0.09-0.01-0.18-0.02-0.27-0.04c-0.1-0.02-0.2-0.02-0.3-0.02c0,0,0,0-0.01,0c0,0-0.01,0-0.01,0c-0.1,0-0.2,0.01-0.3,0.01   c-0.03,0-0.05,0-0.08,0c-0.04,0-0.09,0-0.13,0c-0.07,0-0.15,0-0.22,0c-0.08,0-0.17,0-0.25,0c-0.22,0-0.45-0.01-0.68-0.01   c-0.03,0-0.07,0-0.11,0c-0.17-0.01-0.38-0.03-0.57-0.01c-0.08,0.01-0.15,0.02-0.22,0.05c-0.04,0.02-0.07,0.04-0.1,0.06   c-0.03,0.03-0.06,0.08-0.1,0.13c-0.02,0.03-0.04,0.05-0.05,0.07c-0.01,0.01-0.02,0.02-0.03,0.02c-0.08,0.05-0.17,0-0.25-0.05   c-0.05-0.03-0.09-0.06-0.14-0.07c-0.18-0.04-0.4-0.04-0.62-0.02c-0.05,0-0.1,0.01-0.15,0.01c-0.1,0.01-0.19,0.01-0.27,0.01   c-0.01,0-0.03,0-0.04,0c-0.14,0-0.27,0-0.4,0.01c-0.05,0-0.09,0.01-0.14,0.01c-0.13,0.01-0.25,0.03-0.39,0.05   c-0.03,0.01-0.06,0.01-0.1,0.02c-0.15,0.03-0.31,0.06-0.46,0.09c-0.02,0-0.05,0.01-0.07,0.01c-0.03,0.01-0.06,0.01-0.1,0.02   c-0.01,0-0.03,0.01-0.04,0.01c-0.06,0.01-0.13,0.02-0.19,0.04c-0.12,0.02-0.25,0.04-0.37,0.07c-0.19,0.03-0.37,0.07-0.56,0.1   c-0.01,0-0.02,0-0.03,0.01c-0.05,0.01-0.1,0.02-0.15,0.03c-0.14,0.02-0.27,0.05-0.41,0.07c-0.07,0.01-0.14,0.03-0.22,0.04   c-0.04,0.01-0.08,0.01-0.12,0.02c-0.1,0.02-0.19,0.03-0.29,0.05c-0.16,0.03-0.32,0.06-0.48,0.08c-0.09,0.02-0.18,0.03-0.26,0.04   c-0.08,0.01-0.16,0.02-0.24,0.03c-0.14,0.02-0.28,0.03-0.42,0.04c0,0-0.01,0-0.01,0c-0.04,0-0.09,0.01-0.13,0.01   c-0.02,0-0.04,0-0.06,0.01c-0.07,0.01-0.14,0.01-0.21,0.02c-0.09,0.01-0.17,0.02-0.26,0.03c-0.07,0.01-0.14,0.02-0.21,0.03   c-0.02,0-0.04,0-0.05,0.01c-0.08,0.01-0.17,0.03-0.25,0.04c0,0,0,0,0,0c0,0,0,0,0,0c-0.01,0-0.02,0-0.04,0.01   c-0.03,0.01-0.06,0.01-0.09,0.01c-0.06,0.01-0.12,0.01-0.19,0.02c-0.08,0.01-0.16,0.01-0.24,0.02c-0.07,0.01-0.13,0.01-0.19,0.03   c-0.05,0.01-0.11,0.02-0.16,0.03c-0.17,0.04-0.33,0.07-0.5,0.09c-0.08,0.01-0.16,0.02-0.23,0.03c-0.14,0.02-0.27,0.04-0.39,0.08   c-0.02,0.01-0.04,0.01-0.06,0.02c-0.04,0.01-0.08,0.03-0.12,0.04c-0.05,0.02-0.11,0.05-0.16,0.08c-0.03,0.02-0.06,0.03-0.09,0.04   c-0.06,0.02-0.11,0.04-0.17,0.06c-0.06,0.02-0.13,0.03-0.19,0.05c-0.08,0.02-0.16,0.03-0.23,0.06c-0.03,0.01-0.06,0.02-0.08,0.02   c-0.01,0-0.02,0-0.02,0c-0.07,0.01-0.14,0.02-0.21,0.02c-0.07,0-0.15,0-0.22,0c-0.02,0-0.05,0-0.07,0c-0.01,0-0.02,0-0.03,0   c-0.09,0-0.19-0.02-0.27,0.02c-0.03,0.01-0.07,0.05-0.1,0.08c-0.01,0.01-0.02,0.01-0.03,0.02c-0.01,0.01-0.03,0.02-0.04,0.02   c-0.02,0.01-0.03,0.01-0.05,0.02c-0.06,0.03-0.13,0.05-0.2,0.07c0,0-0.01,0-0.01,0c-0.2,0.07-0.42,0.12-0.63,0.15   c-0.04,0.01-0.09,0.01-0.13,0.02c-0.11,0.01-0.23,0.04-0.35,0.06c-0.07,0.02-0.14,0.03-0.21,0.05c-0.07,0.02-0.15,0.04-0.22,0.05   c-0.08,0.02-0.16,0.04-0.24,0.05c-0.1,0.02-0.19,0.03-0.29,0.03c-0.04,0-0.08,0-0.12,0c-0.04,0.02-0.09,0.04-0.14,0.05   c-0.1,0.02-0.2,0.04-0.3,0.06c-0.02,0-0.04,0.01-0.05,0.01c0,0-0.01,0-0.01,0c-0.13,0.04-0.27,0.07-0.39,0.12   c-0.08,0.03-0.16,0.05-0.24,0.06c-0.09,0.01-0.18,0.02-0.26,0.03c-0.1,0.01-0.19,0.03-0.29,0.05c-0.03,0.01-0.05,0.02-0.08,0.02   c-0.01,0-0.01,0-0.02,0.01c-0.12,0.04-0.23,0.09-0.34,0.15c-0.06,0.03-0.11,0.05-0.17,0.07c-0.04,0.02-0.07,0.03-0.11,0.04   c-0.02,0.01-0.04,0.01-0.06,0.02c-0.07,0.03-0.15,0.07-0.22,0.11c-0.07,0.04-0.15,0.07-0.23,0.09c-0.01,0-0.01,0-0.02,0   c-0.13,0.02-0.27,0.02-0.41,0.02c0,0-0.01,0-0.01,0c-0.06,0-0.11,0.01-0.17,0.02c-0.17,0.04-0.36,0.1-0.51,0.15   c-0.02,0.01-0.04,0.01-0.06,0.02c-0.08,0.02-0.15,0.03-0.23,0.05c-0.09,0.02-0.17,0.04-0.24,0.08c-0.02,0.01-0.03,0.02-0.05,0.03   c-0.04,0.03-0.08,0.06-0.13,0.08c-0.04,0.02-0.07,0.04-0.11,0.06c-0.02,0.01-0.05,0.02-0.07,0.03c-0.07,0.03-0.13,0.06-0.19,0.1   c-0.02,0.01-0.03,0.02-0.04,0.03c-0.04,0.03-0.06,0.06-0.12,0.08c-0.05,0.02-0.11,0.01-0.17,0c-0.03-0.01-0.06-0.01-0.09-0.02   c-0.02,0-0.04-0.01-0.06-0.01c0.06-0.02,0.11-0.04,0.17-0.07c0.01,0,0.01-0.01,0.02-0.01c0.15-0.06,0.3-0.12,0.45-0.18   c0.02-0.01,0.04-0.02,0.06-0.03c0.05-0.02,0.09-0.04,0.14-0.06c0.12-0.05,0.24-0.1,0.36-0.15c0.06-0.03,0.13-0.05,0.19-0.08   c0.05-0.02,0.09-0.04,0.14-0.06c0.02-0.01,0.04-0.02,0.05-0.03c0.02-0.01,0.04-0.02,0.07-0.03c0.02-0.01,0.03-0.02,0.05-0.03   c0.12-0.07,0.25-0.15,0.38-0.21c0.03-0.01,0.05-0.02,0.08-0.03c0.17-0.07,0.34-0.15,0.5-0.25c0.02-0.01,0.04-0.02,0.06-0.04   c0.02-0.01,0.03-0.02,0.05-0.03c0.12-0.07,0.23-0.15,0.35-0.23c0.08-0.06,0.16-0.11,0.24-0.17c0.04-0.03,0.07-0.05,0.11-0.08   c0.04-0.03,0.08-0.06,0.13-0.09c0.05-0.04,0.11-0.08,0.16-0.12c0.1-0.07,0.2-0.15,0.3-0.22c0.01-0.01,0.03-0.02,0.04-0.03   c0.04-0.03,0.08-0.06,0.11-0.09c0.07-0.06,0.14-0.12,0.2-0.17c0.04-0.03,0.07-0.07,0.11-0.1c0.05-0.04,0.1-0.1,0.15-0.16   c0,0,0.01-0.01,0.01-0.01c0.04-0.05,0.08-0.11,0.13-0.16c0.05-0.06,0.1-0.12,0.16-0.16c0.04-0.03,0.09-0.06,0.13-0.07   c0.01,0,0.02-0.01,0.03-0.01c0.11-0.04,0.22-0.1,0.34-0.18c0.13-0.09,0.26-0.2,0.39-0.31c0,0-0.01,0-0.02,0c0,0,0.01,0,0.01,0   c0,0,0,0,0,0c0.2-0.17,0.4-0.36,0.55-0.48c0.01-0.01,0.02-0.01,0.03-0.02c0.12-0.09,0.24-0.18,0.36-0.26   c0.09-0.07,0.19-0.14,0.27-0.21c0.02-0.02,0.04-0.03,0.05-0.05c0.09-0.08,0.17-0.16,0.25-0.25c0.02-0.03,0.05-0.05,0.07-0.08   c0.05-0.06,0.09-0.12,0.14-0.18c0.04-0.05,0.08-0.1,0.12-0.14c0.12-0.15,0.25-0.29,0.4-0.43c0.01-0.01,0.03-0.03,0.04-0.04   c0.04-0.04,0.08-0.08,0.13-0.12c0.14-0.12,0.27-0.24,0.41-0.34c0.05-0.04,0.1-0.07,0.15-0.11c0.08-0.05,0.17-0.1,0.26-0.15   c0.13-0.07,0.27-0.14,0.4-0.21c0.03-0.01,0.05-0.03,0.08-0.04c0,0,0.01,0,0.01-0.01c0.14-0.08,0.28-0.17,0.41-0.27   c0.02-0.01,0.04-0.03,0.06-0.04c0,0,0.01,0,0.01-0.01c0.16-0.14,0.29-0.29,0.44-0.43c0.01-0.01,0.01-0.01,0.02-0.02   c0.04-0.04,0.09-0.08,0.14-0.12c0.04-0.03,0.08-0.06,0.12-0.09c0.05-0.04,0.1-0.07,0.15-0.11c0.07-0.05,0.14-0.11,0.21-0.16   c0.02-0.02,0.04-0.03,0.06-0.05c0.16-0.12,0.32-0.25,0.47-0.38c0.04-0.03,0.07-0.06,0.11-0.09c0.09-0.08,0.18-0.15,0.27-0.23   c0.03-0.03,0.07-0.06,0.1-0.09c0.06-0.05,0.12-0.1,0.18-0.16c0.04-0.04,0.08-0.07,0.12-0.1c0.04-0.04,0.09-0.07,0.13-0.11   c0.29-0.24,0.58-0.47,0.84-0.75c0,0,0.01-0.01,0.01-0.01c0.04-0.04,0.08-0.09,0.12-0.14c0.04-0.05,0.08-0.1,0.13-0.15   c0.13-0.15,0.26-0.29,0.4-0.41c0.05-0.05,0.11-0.09,0.17-0.13c0.01,0,0.01-0.01,0.02-0.01c0,0,0.01,0,0.01-0.01   c0.01-0.01,0.02-0.01,0.03-0.02c0,0,0,0,0,0c0.21-0.13,0.41-0.29,0.6-0.47c0.12-0.11,0.24-0.22,0.36-0.33   c0.07-0.06,0.13-0.12,0.2-0.18c0.02-0.02,0.04-0.04,0.06-0.06c0.09-0.08,0.17-0.16,0.26-0.24c0.06-0.05,0.12-0.11,0.18-0.16   c0.12-0.11,0.23-0.22,0.34-0.33c0,0,0.01-0.01,0.01-0.01c0.14-0.14,0.28-0.28,0.4-0.4c0,0,0.01-0.01,0.01-0.01   c0.1-0.1,0.2-0.21,0.31-0.31c0.04-0.04,0.08-0.07,0.12-0.1c0.02-0.02,0.04-0.03,0.06-0.05c0.07-0.05,0.13-0.09,0.21-0.13   c0-0.01,0.01-0.02,0.01-0.03c0,0,0-0.01,0.01-0.01c0,0,0-0.01,0.01-0.01c0.03-0.05,0.06-0.09,0.1-0.13   c0.01-0.01,0.01-0.01,0.02-0.02h0c0.02-0.02,0.04-0.04,0.07-0.07c0.02-0.02,0.05-0.04,0.07-0.06c0.03-0.02,0.06-0.05,0.09-0.07   c0.05-0.04,0.1-0.07,0.16-0.11c0.08-0.06,0.17-0.12,0.24-0.18c0.03-0.02,0.05-0.04,0.07-0.07c0.01-0.01,0.02-0.02,0.04-0.04   c0,0,0,0,0,0c0.03-0.03,0.05-0.05,0.08-0.08c0.01-0.01,0.02-0.02,0.04-0.03c0.11-0.1,0.22-0.21,0.33-0.31   c0.09-0.09,0.18-0.18,0.25-0.28c0.1-0.12,0.19-0.26,0.25-0.4c0.09-0.21,0.21-0.39,0.36-0.57c0.03-0.04,0.06-0.07,0.09-0.11   c0.18-0.2,0.38-0.38,0.56-0.56c0.12-0.11,0.24-0.23,0.35-0.34c0.07-0.07,0.13-0.14,0.2-0.21c0.1-0.11,0.2-0.23,0.3-0.34   c0.04-0.05,0.08-0.1,0.12-0.15c0.02-0.03,0.05-0.05,0.07-0.08c0.15-0.19,0.31-0.38,0.47-0.57c0.17-0.21,0.35-0.42,0.53-0.62   c0.17-0.19,0.35-0.38,0.53-0.56c0.07-0.07,0.14-0.14,0.21-0.21c0.01-0.01,0.02-0.02,0.03-0.03c0.02-0.02,0.05-0.05,0.07-0.07   c0.08-0.08,0.17-0.16,0.26-0.23c0,0,0.01-0.01,0.01-0.01c0.05-0.04,0.1-0.08,0.15-0.12c0.18-0.15,0.37-0.29,0.52-0.46   c0.04-0.04,0.08-0.09,0.11-0.14c0.07-0.1,0.15-0.2,0.22-0.3c0.08-0.1,0.15-0.21,0.24-0.31c0.05-0.06,0.09-0.11,0.14-0.17   c0.11-0.13,0.23-0.25,0.36-0.38c0.28-0.26,0.52-0.53,0.83-0.77c0.03-0.03,0.06-0.05,0.09-0.07c0.02-0.02,0.05-0.04,0.07-0.05   c0.08-0.06,0.14-0.12,0.21-0.21c0.03-0.03,0.05-0.07,0.08-0.1c0.03-0.04,0.05-0.07,0.08-0.11c0.06-0.09,0.11-0.18,0.17-0.27   c0,0,0.01-0.01,0.01-0.01c0,0,0,0,0,0c0.05-0.08,0.1-0.16,0.16-0.24c0.02-0.03,0.04-0.06,0.07-0.09c0.18-0.22,0.32-0.46,0.45-0.71   c0.01-0.01,0.01-0.02,0.02-0.03c0.09-0.18,0.18-0.36,0.26-0.55c0.03-0.07,0.06-0.14,0.09-0.21c0.05-0.1,0.09-0.2,0.14-0.29   c0.13-0.27,0.33-0.48,0.48-0.74c0.05-0.09,0.12-0.21,0.18-0.35c0.02-0.05,0.05-0.1,0.07-0.15c0.04-0.1,0.09-0.21,0.12-0.32   c0.04-0.13,0.07-0.26,0.08-0.38c0.01-0.11,0-0.22-0.02-0.3c-0.01-0.04-0.03-0.08-0.06-0.11c-0.13,0.08-0.29,0.09-0.45,0.13   c-0.1,0.02-0.19,0.05-0.28,0.11c-0.12,0.08-0.22,0.18-0.32,0.28c-0.01,0.01-0.02,0.03-0.04,0.04c-0.03,0.04-0.06,0.07-0.09,0.11   c-0.01,0.01-0.02,0.03-0.03,0.04c-0.01,0.01-0.02,0.03-0.03,0.04c-0.07,0.09-0.14,0.18-0.21,0.28c-0.01,0.01-0.02,0.02-0.02,0.03   c-0.01,0.02-0.03,0.03-0.04,0.05c-0.05,0.07-0.1,0.14-0.15,0.2c-0.03,0.04-0.06,0.08-0.09,0.12c-0.09,0.12-0.19,0.25-0.28,0.37   c-0.03,0.04-0.07,0.09-0.1,0.13c-0.03,0.04-0.07,0.08-0.1,0.12c-0.03,0.03-0.06,0.06-0.09,0.1c-0.28,0.28-0.61,0.49-0.93,0.72   c-0.04,0.03-0.08,0.05-0.11,0.08c-0.01,0.01-0.03,0.02-0.04,0.03c-0.33,0.25-0.61,0.56-0.92,0.83c-0.15,0.13-0.27,0.29-0.39,0.44   c-0.03,0.04-0.06,0.09-0.1,0.13c-0.07,0.1-0.15,0.19-0.23,0.28c-0.08,0.08-0.16,0.16-0.24,0.23c-0.05,0.04-0.1,0.09-0.14,0.13   c-0.04,0.03-0.07,0.06-0.11,0.09c0,0,0,0,0,0c-0.01,0.01-0.03,0.02-0.04,0.03c-0.07,0.06-0.14,0.11-0.2,0.17   c-0.04,0.03-0.08,0.07-0.12,0.1c-0.07,0.06-0.14,0.13-0.21,0.19c-0.06,0.05-0.11,0.1-0.16,0.16c-0.05,0.04-0.09,0.09-0.14,0.13   c-0.07,0.07-0.14,0.14-0.21,0.2c-0.04,0.04-0.08,0.07-0.12,0.11c-0.05,0.04-0.1,0.08-0.14,0.13c-0.01,0.01-0.02,0.01-0.03,0.02   c-0.1,0.08-0.21,0.17-0.32,0.25c-0.07,0.06-0.15,0.11-0.22,0.17c-0.09,0.07-0.18,0.14-0.26,0.21c-0.11,0.09-0.21,0.18-0.3,0.27   c-0.02,0.02-0.04,0.04-0.06,0.06c-0.01,0.01-0.01,0.01-0.01,0.02c-0.07,0.08-0.15,0.16-0.22,0.24c-0.11,0.12-0.21,0.24-0.32,0.36   c0,0,0,0,0,0.01c-0.09,0.1-0.18,0.2-0.28,0.29c-0.03,0.03-0.05,0.05-0.08,0.08c-0.01,0.01-0.03,0.02-0.04,0.04   c-0.09,0.07-0.18,0.14-0.26,0.23c-0.04,0.04-0.09,0.09-0.15,0.14c-0.16,0.14-0.36,0.31-0.44,0.45c-0.01,0.01-0.01,0.02-0.02,0.04   c-0.06,0.05-0.12,0.1-0.18,0.15c-0.04,0.04-0.08,0.07-0.11,0.11c-0.06,0.06-0.12,0.12-0.17,0.18c-0.08,0.09-0.15,0.17-0.22,0.26   c0,0,0,0.01-0.01,0.01c-0.03,0.04-0.06,0.08-0.1,0.11c0,0-0.01,0.01-0.01,0.01c-0.01,0.01-0.02,0.02-0.03,0.04   c-0.04,0.04-0.08,0.09-0.12,0.13c-0.05,0.06-0.11,0.11-0.17,0.17c-0.09,0.08-0.17,0.17-0.26,0.25c-0.07,0.07-0.15,0.13-0.22,0.19   c-0.06,0.05-0.12,0.1-0.18,0.15c-0.06,0.05-0.12,0.1-0.18,0.15c-0.06,0.05-0.12,0.1-0.18,0.15c0,0,0,0,0,0   c-0.04,0.03-0.08,0.06-0.12,0.09c-0.05,0.03-0.09,0.07-0.14,0.1c-0.09,0.06-0.18,0.13-0.26,0.21c-0.03,0.03-0.05,0.05-0.07,0.08   c-0.03,0.04-0.06,0.09-0.08,0.13c-0.06,0.1-0.11,0.2-0.19,0.29c-0.14,0.15-0.34,0.19-0.49,0.31c-0.03,0.02-0.06,0.05-0.08,0.07   c0,0.01-0.01,0.01-0.01,0.02c-0.12,0.14-0.24,0.28-0.37,0.42c-0.07,0.08-0.15,0.15-0.23,0.22c-0.05,0.04-0.09,0.08-0.14,0.12   c-0.06,0.05-0.12,0.09-0.18,0.14c-0.04,0.03-0.07,0.05-0.11,0.08c-0.03,0.02-0.07,0.05-0.1,0.07c-0.02,0.01-0.03,0.02-0.05,0.04   c-0.12,0.09-0.23,0.18-0.33,0.28c-0.08,0.08-0.17,0.16-0.25,0.24c-0.05,0.05-0.11,0.1-0.17,0.15c-0.02,0.02-0.04,0.03-0.06,0.05   c0,0,0,0-0.01,0.01c-0.01,0.01-0.03,0.02-0.04,0.04c-0.04,0.03-0.08,0.06-0.11,0.09c0,0,0,0,0,0c-0.05,0.04-0.1,0.08-0.15,0.12   c-0.09,0.07-0.18,0.15-0.27,0.22c-0.02,0.01-0.03,0.03-0.05,0.04c-0.02,0.02-0.05,0.04-0.07,0.06c-0.04,0.03-0.08,0.06-0.12,0.1   c-0.01,0.01-0.02,0.02-0.03,0.03c-0.06,0.05-0.13,0.1-0.19,0.15c-0.03,0.02-0.06,0.05-0.09,0.07c-0.07,0.05-0.14,0.11-0.21,0.16   c-0.03,0.02-0.06,0.04-0.09,0.06c-0.16,0.11-0.33,0.21-0.48,0.33c-0.04,0.03-0.08,0.06-0.11,0.1c-0.07,0.07-0.14,0.13-0.21,0.18   c-0.01,0.01-0.02,0.02-0.03,0.02c-0.03,0.02-0.07,0.05-0.11,0.07c-0.02,0.01-0.03,0.02-0.05,0.04c-0.06,0.05-0.12,0.12-0.18,0.17   c-0.05,0.04-0.09,0.07-0.13,0.07c-0.01,0.02-0.02,0.04-0.04,0.06c-0.1,0.13-0.3,0.18-0.43,0.27c-0.05,0.03-0.09,0.08-0.14,0.12   c-0.03,0.02-0.05,0.05-0.07,0.08c-0.05,0.05-0.09,0.09-0.14,0.13c-0.12,0.1-0.24,0.21-0.37,0.31c-0.08,0.07-0.16,0.13-0.25,0.2   c-0.08,0.06-0.17,0.12-0.25,0.18c0,0-0.01,0-0.01,0.01c0,0-0.01,0.01-0.01,0.01c-0.14,0.1-0.29,0.19-0.43,0.28c0,0,0,0,0,0   c-0.01,0-0.01,0.01-0.02,0.01c-0.21,0.13-0.38,0.26-0.56,0.45c-0.05,0.05-0.1,0.11-0.16,0.16c-0.02,0.02-0.05,0.04-0.07,0.07   c-0.03,0.03-0.07,0.06-0.1,0.09c-0.06,0.05-0.13,0.1-0.19,0.16c-0.03,0.02-0.05,0.04-0.08,0.06c-0.01,0.01-0.02,0.01-0.03,0.02   c-0.02,0.02-0.04,0.03-0.06,0.05c-0.08,0.06-0.15,0.12-0.23,0.17c-0.15,0.11-0.31,0.21-0.48,0.31c-0.01,0-0.01,0.01-0.01,0.01   c-0.09,0.06-0.17,0.12-0.25,0.2c-0.07,0.07-0.13,0.14-0.2,0.22c-0.05,0.06-0.09,0.11-0.14,0.17c0,0-0.01,0.01-0.01,0.01   c-0.04,0.05-0.08,0.09-0.13,0.12c-0.03,0.02-0.06,0.04-0.08,0.06c-0.04,0.02-0.08,0.05-0.12,0.07c-0.04,0.02-0.07,0.04-0.11,0.06   c-0.04,0.02-0.08,0.04-0.12,0.07c-0.03,0.02-0.07,0.04-0.1,0.06c-0.04,0.03-0.09,0.07-0.13,0.11c-0.07,0.07-0.12,0.13-0.18,0.2   c-0.03,0.04-0.07,0.08-0.1,0.12c-0.02,0.02-0.03,0.03-0.05,0.05c-0.06,0.06-0.12,0.12-0.2,0.17c-0.01,0.01-0.02,0.01-0.03,0.02   c-0.09,0.06-0.17,0.12-0.25,0.19c-0.06,0.05-0.12,0.1-0.18,0.15c-0.07,0.06-0.13,0.11-0.2,0.17c-0.08,0.07-0.16,0.14-0.25,0.2   c-0.02,0.02-0.04,0.03-0.06,0.05c-0.07,0.05-0.14,0.12-0.21,0.18c-0.05,0.05-0.11,0.1-0.17,0.15c-0.01,0.01-0.01,0.01-0.02,0.02   c-0.01,0-0.01,0.01-0.02,0.01c-0.1,0.07-0.23,0.12-0.32,0.21c0,0-0.01,0.01-0.01,0.01c-0.08,0.07-0.15,0.14-0.22,0.21c0,0,0,0,0,0   c-0.02,0.02-0.04,0.04-0.06,0.06c-0.04,0.04-0.07,0.08-0.11,0.11c-0.04,0.04-0.08,0.08-0.13,0.13c-0.02,0.02-0.05,0.05-0.07,0.07   c-0.01,0.01-0.02,0.02-0.02,0.02c-0.01,0.01-0.02,0.02-0.03,0.02c-0.18,0.16-0.41,0.33-0.63,0.44c-0.02,0.01-0.04,0.02-0.07,0.03   c-0.05,0.02-0.1,0.04-0.16,0.05c0,0-0.01,0-0.01,0c-0.08,0.02-0.16,0.04-0.23,0.06c-0.05,0.01-0.09,0.03-0.14,0.04   c-0.12,0.04-0.28,0.14-0.44,0.24c-0.01,0.01-0.02,0.01-0.03,0.02c-0.03,0.02-0.07,0.05-0.1,0.07c-0.12,0.1-0.22,0.2-0.28,0.29   c0,0,0,0,0,0c-0.22,0.07-0.44,0.26-0.61,0.41c-0.07,0.06-0.13,0.13-0.2,0.19c-0.04,0.04-0.08,0.08-0.13,0.11   c-0.16,0.11-0.34,0.17-0.5,0.28c-0.01,0.01-0.01,0.01-0.02,0.01c-0.08,0.05-0.15,0.09-0.23,0.12c-0.05,0.02-0.1,0.04-0.16,0.06   c-0.01,0-0.02,0.01-0.03,0.01c-0.03,0.01-0.06,0.02-0.09,0.04c-0.12,0.06-0.22,0.13-0.32,0.2c-0.05,0.04-0.11,0.08-0.17,0.11   c-0.02,0.01-0.03,0.02-0.05,0.03c-0.13,0.08-0.29,0.12-0.43,0.18c-0.03,0.01-0.06,0.02-0.08,0.04c-0.01,0-0.01,0.01-0.02,0.01   c-0.05,0.03-0.09,0.05-0.13,0.08c-0.06,0.04-0.12,0.08-0.18,0.11c-0.01,0.01-0.03,0.02-0.04,0.02c-0.27,0.13-0.56,0.24-0.86,0.32   c-0.22,0.06-0.45,0.11-0.67,0.15c-0.04,0.01-0.09,0.01-0.13,0.02c-0.15,0.02-0.3,0.05-0.45,0.08c-0.22,0.04-0.44,0.08-0.67,0.11   c-0.18,0.02-0.37,0.04-0.55,0.04c-0.19,0-0.38-0.02-0.56-0.05c0,0,0,0,0,0c-0.02-0.09-0.06-0.17-0.1-0.24   c-0.01-0.02-0.02-0.04-0.03-0.07c-0.03-0.05-0.05-0.1-0.08-0.16c-0.01-0.02-0.02-0.03-0.02-0.05c-0.03-0.06-0.05-0.12-0.06-0.19   c-0.01-0.03-0.01-0.06-0.02-0.08c-0.02-0.08-0.03-0.16-0.04-0.24c0-0.01,0-0.02-0.01-0.03c0-0.02-0.01-0.04-0.01-0.06   c-0.01-0.07-0.03-0.15-0.05-0.22c0,0,0,0,0,0c-0.04-0.16-0.07-0.32-0.1-0.48c-0.02-0.11-0.03-0.22-0.04-0.33   c0-0.02,0-0.03-0.01-0.05c-0.01-0.05-0.01-0.1-0.02-0.15c0,0,0,0,0,0c-0.01-0.07-0.01-0.13-0.02-0.2c0,0,0-0.01,0-0.01   c0-0.04-0.01-0.07-0.01-0.11c-0.02-0.25-0.06-0.49-0.1-0.74c0,0,0,0,0,0c0,0,0,0,0-0.01c-0.02-0.13-0.04-0.26-0.06-0.39   c0-0.02-0.01-0.03-0.01-0.05c-0.01-0.03-0.01-0.06-0.02-0.09c-0.01-0.06-0.02-0.12-0.03-0.18c-0.01-0.05-0.01-0.1-0.02-0.15   c0-0.02-0.01-0.04-0.01-0.06c-0.01-0.1-0.02-0.2-0.04-0.29c-0.01-0.07-0.02-0.15-0.02-0.22c0,0,0,0,0,0   c-0.01-0.05-0.01-0.1-0.01-0.15c0-0.03-0.01-0.06-0.01-0.1c-0.01-0.1-0.02-0.21-0.03-0.31c-0.01-0.18-0.03-0.36-0.04-0.54   c0-0.01,0-0.03,0-0.04c0-0.09-0.01-0.19-0.01-0.28c0-0.02,0-0.04,0-0.07c0-0.11-0.01-0.22-0.01-0.33c0-0.04,0-0.07,0-0.11   c0-0.12,0-0.24,0-0.36c0-0.12,0-0.23,0.01-0.35c0-0.01,0-0.03,0-0.04c0-0.09,0.01-0.18,0.01-0.28c0.01-0.09,0.01-0.18,0.02-0.27   c0.01-0.09,0.01-0.17,0.02-0.26c0,0,0-0.01,0-0.01c0.01-0.07,0.01-0.14,0.02-0.21c0.02-0.17,0.05-0.34,0.09-0.5   c0.02-0.07,0.03-0.14,0.05-0.21c0,0,0-0.01,0-0.01c0,0,0,0,0,0c0.02-0.11,0.05-0.22,0.06-0.32c0-0.01,0-0.01,0-0.02   c0.01-0.06,0.02-0.12,0.03-0.18c0.02-0.09,0.04-0.19,0.07-0.28c0.04-0.14,0.07-0.28,0.11-0.42c0.01-0.04,0.02-0.08,0.03-0.12   c0.02-0.07,0.04-0.14,0.05-0.22c0.01-0.03,0.01-0.05,0.02-0.08c0.01-0.03,0.01-0.05,0.02-0.08c0.02-0.09,0.05-0.18,0.08-0.27   c0.05-0.13,0.11-0.27,0.15-0.4c0.03-0.1,0.05-0.21,0.05-0.32c0-0.01,0-0.01,0-0.02c0-0.02,0-0.04,0-0.05   c0.01-0.29,0.11-0.43,0.22-0.69c0.02-0.06,0.04-0.12,0.05-0.18c0,0,0,0,0,0c0-0.01,0-0.01,0-0.02c0.02-0.11,0.03-0.23,0.04-0.35   c0.01-0.08,0.02-0.15,0.03-0.23c0-0.02,0.01-0.05,0.02-0.07c0.02-0.1,0.05-0.2,0.07-0.3c0.07-0.24,0.15-0.47,0.24-0.7   c0.02-0.04,0.03-0.09,0.05-0.13c0.13-0.34,0.27-0.67,0.37-1c0.02-0.06,0.04-0.13,0.06-0.19c0.08-0.29,0.13-0.57,0.13-0.87   c0-0.04,0-0.09,0-0.13c0-0.07,0-0.13,0.02-0.2c0.01-0.08,0.04-0.15,0.07-0.23c0-0.01,0.01-0.01,0.01-0.02   c0.04-0.11,0.09-0.22,0.14-0.33c0.02-0.04,0.03-0.08,0.04-0.12c0-0.01,0.01-0.03,0.01-0.04c0-0.01,0.01-0.03,0.01-0.04   c0.02-0.08,0.03-0.16,0.04-0.24c0.01-0.14,0.01-0.28,0.01-0.43c0-0.08,0-0.15,0-0.23c0-0.04,0-0.07,0-0.11c0-0.11,0-0.21-0.01-0.32   c-0.01-0.17-0.02-0.34-0.03-0.51c0-0.04-0.01-0.09-0.01-0.13c0,0,0,0,0,0c0,0,0,0,0,0c-0.01-0.22-0.03-0.45-0.04-0.68   c-0.01-0.15-0.02-0.28-0.05-0.4c-0.01-0.05-0.03-0.09-0.06-0.13c-0.05-0.08-0.11-0.15-0.21-0.22c-0.04-0.03-0.08-0.06-0.13-0.09   c-0.08-0.05-0.15-0.11-0.23-0.16c-0.07-0.05-0.13-0.1-0.2-0.16c-0.03-0.02-0.06-0.05-0.09-0.07c-0.02-0.02-0.05-0.04-0.07-0.06   c-0.1-0.09-0.2-0.17-0.29-0.26c-0.05-0.05-0.1-0.09-0.15-0.14c-0.03-0.03-0.07-0.06-0.1-0.09c-0.09-0.09-0.19-0.18-0.28-0.26   c0,0-0.01-0.01-0.01-0.01c-0.04-0.04-0.09-0.08-0.13-0.12c-0.01-0.01-0.01-0.01-0.02-0.02c-0.01-0.01-0.02-0.02-0.04-0.03   c-0.03-0.03-0.06-0.06-0.09-0.09c-0.03-0.03-0.06-0.06-0.08-0.1c-0.03-0.04-0.07-0.09-0.1-0.13c-0.07-0.1-0.14-0.19-0.22-0.28   c0,0-0.01-0.01-0.01-0.01c-0.04-0.04-0.1-0.09-0.17-0.14c-0.03-0.02-0.07-0.05-0.11-0.07c-0.01,0-0.02-0.01-0.02-0.01   c-0.05-0.03-0.11-0.05-0.16-0.07c-0.04-0.01-0.08-0.02-0.12-0.02c-0.03,0-0.07,0-0.09,0.02c-0.02,0.01-0.03,0.02-0.04,0.03   c-0.02,0.02-0.03,0.04-0.04,0.07c-0.01,0.03-0.02,0.05-0.03,0.08c-0.01,0.04-0.02,0.09-0.02,0.13c0,0.04-0.01,0.08-0.01,0.12   c0,0.05,0,0.11,0,0.16c0,0.02,0,0.04,0,0.06c0,0.03,0,0.05-0.01,0.07c0,0,0,0.01,0,0.01c-0.01,0.07-0.02,0.13-0.02,0.2   c-0.01,0.1-0.02,0.2-0.02,0.3c0,0.06-0.01,0.12-0.01,0.17c0,0.04,0,0.08,0,0.12c0,0.02,0,0.03,0,0.05c0,0.08,0,0.16,0.01,0.24   c0,0.05,0,0.1,0.01,0.14c0.01,0.19,0.03,0.38,0.03,0.57c0,0.07,0,0.13,0,0.2c0,0.1-0.01,0.2-0.02,0.3c0,0.04-0.01,0.07-0.01,0.11   c0,0.01,0,0.01,0,0.02c0,0,0,0,0,0.01c0,0.01,0,0.02,0,0.03c-0.02,0.09-0.04,0.18-0.06,0.28c-0.02,0.08-0.03,0.16-0.02,0.23   c0.01,0.08,0,0.16-0.01,0.24c-0.01,0.08-0.03,0.15-0.05,0.23c-0.01,0.02-0.01,0.05-0.02,0.07c-0.01,0.05-0.03,0.09-0.05,0.14   c-0.08,0.24-0.18,0.48-0.21,0.73c-0.02,0.17-0.03,0.33-0.06,0.49c-0.01,0.09-0.03,0.18-0.05,0.27c-0.01,0.04-0.02,0.07-0.03,0.11   c-0.01,0.03-0.02,0.07-0.03,0.1c-0.03,0.09-0.05,0.19-0.08,0.28c-0.04,0.15-0.08,0.3-0.13,0.45c-0.03,0.1-0.07,0.19-0.12,0.28   c-0.02,0.04-0.04,0.09-0.06,0.13c-0.02,0.05-0.04,0.11-0.06,0.16c-0.06,0.18-0.1,0.35-0.15,0.55c0,0,0,0.01,0,0.01   c-0.07,0.31-0.18,0.72-0.36,0.98c-0.02,0.03-0.04,0.06-0.06,0.09c-0.02,0.04-0.04,0.08-0.07,0.12c-0.1,0.2-0.17,0.41-0.23,0.63   c-0.01,0.02-0.01,0.05-0.02,0.07c-0.02,0.09-0.04,0.18-0.06,0.27c-0.02,0.07-0.03,0.15-0.05,0.22c-0.01,0.04-0.02,0.08-0.03,0.11   c0,0.01,0,0.01-0.01,0.02c-0.01,0.04-0.02,0.07-0.03,0.1c-0.03,0.11-0.06,0.21-0.09,0.32c-0.02,0.07-0.05,0.14-0.07,0.21   c-0.03,0.1-0.07,0.19-0.1,0.29c0,0,0,0.01,0,0.01c0,0.01,0,0.01-0.01,0.02c-0.02,0.06-0.04,0.11-0.05,0.17   c-0.04,0.11-0.07,0.23-0.1,0.35c0,0.01,0,0.02-0.01,0.03c-0.02,0.07-0.03,0.14-0.05,0.2c0,0,0,0,0,0.01   c-0.01,0.03-0.02,0.06-0.02,0.09c-0.02,0.09-0.05,0.18-0.07,0.27c-0.03,0.11-0.06,0.22-0.09,0.33c-0.02,0.06-0.03,0.12-0.05,0.18   c-0.01,0.05-0.02,0.09-0.03,0.14c-0.01,0.02-0.01,0.05-0.02,0.07c-0.03,0.15-0.06,0.31-0.08,0.47c0,0.02,0,0.03-0.01,0.05   c0,0.01,0,0.03-0.01,0.04c-0.01,0.1-0.02,0.2-0.04,0.3c-0.01,0.09-0.03,0.18-0.04,0.27c-0.01,0.03-0.01,0.06-0.02,0.1   c-0.01,0.05-0.02,0.1-0.03,0.16c-0.02,0.11-0.04,0.22-0.06,0.34c-0.01,0.06-0.02,0.13-0.03,0.19c0,0,0,0,0,0.01   c-0.02,0.13-0.04,0.27-0.05,0.4c0,0.02,0,0.03,0,0.05c0,0.06-0.01,0.12-0.01,0.19c0,0.05,0,0.09,0,0.14c0,0.02,0,0.04,0,0.05   c0,0.07,0,0.13,0.01,0.19c0,0.07,0.01,0.13,0.02,0.2c0.01,0.09,0.03,0.17,0.04,0.26c0.01,0.03,0.01,0.06,0.02,0.09   c0.01,0.04,0.02,0.07,0.03,0.11c0.02,0.1,0.04,0.21,0.04,0.32c0,0.02,0,0.05,0,0.07c-0.01,0.07-0.01,0.15-0.01,0.22   c0,0.12,0,0.23,0,0.35c0.01,0.1,0.02,0.19,0.03,0.29c0.01,0.07,0.02,0.14,0.04,0.22c0.03,0.13,0.06,0.25,0.1,0.37   c0,0.01,0.01,0.03,0.01,0.04c0.02,0.05,0.03,0.1,0.05,0.15c0.04,0.1,0.09,0.2,0.13,0.3c0.02,0.03,0.03,0.07,0.05,0.1   c0.03,0.07,0.06,0.14,0.09,0.21c0.05,0.13,0.1,0.26,0.13,0.4c0,0.02,0.01,0.04,0.01,0.07c-0.01,0-0.01,0-0.02,0   c0,0.04,0.01,0.07,0.01,0.11c0,0.03,0.01,0.06,0.02,0.09c0.01,0.05,0.03,0.1,0.05,0.15c0.02,0.04,0.03,0.08,0.05,0.12   c0.02,0.04,0.04,0.09,0.07,0.13c0.03,0.06,0.07,0.12,0.11,0.17c0.01,0.01,0.01,0.02,0.02,0.03c0.03,0.06,0.06,0.12,0.1,0.17   c0.01,0.02,0.03,0.05,0.05,0.07c0,0,0,0.01,0.01,0.01c0.07,0.09,0.14,0.18,0.22,0.27c0,0,0,0,0,0.01c0.02,0.03,0.03,0.05,0.05,0.08   c0.04,0.06,0.07,0.11,0.11,0.17c0.07,0.1,0.14,0.2,0.21,0.3c0,0.01,0.01,0.02,0.01,0.03c0,0,0,0,0,0c0,0,0,0,0,0.01   c0.02,0.06,0.05,0.1,0.09,0.14c0.02,0.02,0.04,0.04,0.06,0.07c0.03,0.03,0.06,0.06,0.09,0.09c0.08,0.1,0.16,0.21,0.24,0.32   c0.06,0.07,0.11,0.14,0.17,0.21c0,0,0,0,0,0c0.07,0.09,0.15,0.18,0.24,0.27c0.11,0.12,0.23,0.23,0.35,0.34   c0.01,0.01,0.03,0.03,0.04,0.04c0.04,0.04,0.08,0.07,0.12,0.11c0.03,0.03,0.06,0.07,0.1,0.1s0.07,0.06,0.1,0.1   c0.02,0.03,0.05,0.06,0.07,0.09c0.05,0.06,0.1,0.12,0.15,0.18c0.03,0.03,0.06,0.06,0.09,0.09c0.14,0.14,0.27,0.26,0.41,0.39   c0.02,0.02,0.04,0.03,0.06,0.05c0,0,0,0,0,0c0.03,0.02,0.05,0.05,0.08,0.07c0.04,0.03,0.08,0.07,0.11,0.1   c0.02,0.02,0.04,0.04,0.06,0.06c0.02,0.01,0.03,0.03,0.05,0.04c0.07,0.06,0.13,0.11,0.2,0.16c0.18,0.15,0.38,0.28,0.59,0.36   c0.05,0.02,0.11,0.04,0.17,0.06c0.01,0,0.01,0,0.02,0.01c0.11,0.04,0.22,0.07,0.33,0.1c0.15,0.04,0.31,0.08,0.46,0.13   c0.01,0,0.01,0,0.02,0.01c0.32,0.1,0.68,0.11,1.04,0.1c0.06,0,0.13,0,0.19-0.01c0.07,0,0.15-0.01,0.22-0.01   c0.12,0,0.23-0.01,0.34-0.01c0.09,0,0.18,0,0.27,0c0.17,0,0.32-0.02,0.49-0.05c0.03-0.01,0.07-0.01,0.1-0.02   c0.06-0.01,0.12-0.03,0.18-0.05c0.1-0.03,0.19-0.06,0.29-0.08c0.12-0.03,0.25-0.06,0.37-0.09c0.09-0.02,0.19-0.04,0.28-0.06   c0.1-0.02,0.2-0.04,0.3-0.06c-0.04,0.01-0.07,0.03-0.11,0.04c-0.15,0.05-0.3,0.11-0.45,0.17c-0.04,0.02-0.08,0.03-0.13,0.04   c-0.02,0.01-0.03,0.01-0.05,0.01c-0.14,0.04-0.29,0.06-0.43,0.1c-0.04,0.01-0.08,0.02-0.12,0.04c-0.06,0.02-0.13,0.05-0.19,0.09   c-0.13,0.07-0.29,0.17-0.45,0.19c-0.03,0-0.06,0.01-0.09,0c-0.16-0.02-0.37,0.11-0.52,0.15c0,0-0.01,0-0.01,0   c-0.01,0-0.01,0-0.02,0.01c-0.08,0.02-0.15,0.03-0.23,0.05c-0.05,0.01-0.1,0.02-0.14,0.03c-0.03,0.01-0.05,0.01-0.08,0.02   c-0.06,0.01-0.12,0.03-0.17,0.05c-0.01,0-0.02,0.01-0.03,0.01c-0.13,0.04-0.26,0.08-0.39,0.11c-0.07,0.02-0.14,0.04-0.21,0.05   c-0.18,0.05-0.36,0.09-0.53,0.16c-0.05,0.02-0.1,0.04-0.15,0.07c-0.04,0.02-0.09,0.04-0.13,0.06c-0.01,0-0.01,0-0.02,0.01   c-0.13,0.05-0.24,0.05-0.36,0.05c-0.08,0-0.17,0-0.26,0.01c0,0-0.01,0-0.01,0c-0.06,0.01-0.11,0.03-0.17,0.04c0,0,0,0,0,0l0,0   c0,0,0,0,0,0s0,0,0,0c-0.09,0.03-0.18,0.07-0.26,0.1c-0.08,0.03-0.16,0.07-0.24,0.1c-0.15,0.06-0.3,0.13-0.45,0.19   c-0.12,0.05-0.24,0.1-0.36,0.15c-0.08,0.04-0.17,0.06-0.25,0.09c-0.06,0.02-0.11,0.03-0.17,0.05c-0.08,0.02-0.16,0.04-0.23,0.06   c-0.03,0.01-0.06,0.02-0.1,0.03c-0.03,0.01-0.06,0.02-0.08,0.02c0,0-0.01,0-0.01,0c-0.05,0.02-0.1,0.03-0.15,0.05   c-0.04,0.01-0.08,0.03-0.12,0.05c-0.08,0.04-0.16,0.07-0.24,0.11c-0.04,0.02-0.08,0.04-0.12,0.06c-0.07,0.03-0.14,0.06-0.21,0.09   c-0.01,0-0.01,0.01-0.02,0.01c-0.09,0.03-0.18,0.07-0.27,0.1c-0.05,0.01-0.1,0.03-0.15,0.05c-0.07,0.02-0.13,0.05-0.2,0.07   c-0.07,0.03-0.14,0.06-0.21,0.09c0,0,0,0,0,0c-0.07,0.03-0.13,0.06-0.2,0.08c-0.08,0.03-0.16,0.07-0.24,0.09   c-0.3,0.11-0.61,0.2-0.91,0.31c-0.02,0.01-0.04,0.01-0.06,0.02c-0.05,0.02-0.11,0.03-0.16,0.05c-0.04,0.01-0.08,0.02-0.11,0.02   c-0.05,0.01-0.1,0.02-0.14,0.03c-0.09,0.02-0.18,0.03-0.26,0.05c-0.01,0-0.01,0-0.02,0c-0.07,0.02-0.14,0.03-0.21,0.05   c-0.02,0-0.04,0.01-0.06,0.01c-0.02,0-0.04,0.01-0.07,0.01c-0.02,0-0.04,0.01-0.05,0.01c-0.01,0-0.03,0.01-0.04,0.01   c-0.02,0-0.03,0.01-0.05,0.01c-0.06,0.01-0.12,0.02-0.18,0.04c0,0,0,0,0,0c-0.04,0.01-0.08,0.02-0.12,0.03   c-0.11,0.03-0.22,0.07-0.32,0.13c-0.01,0.01-0.02,0.01-0.03,0.02c-0.06,0.04-0.13,0.08-0.19,0.13c-0.15,0.11-0.29,0.22-0.43,0.32   c-0.01,0.01-0.03,0.02-0.04,0.03c-0.07,0.05-0.15,0.1-0.23,0.14c-0.07,0.04-0.14,0.07-0.21,0.1c-0.01,0-0.01,0-0.02,0.01   c-0.08,0.03-0.16,0.05-0.24,0.06c-0.08,0.01-0.15,0.02-0.22,0.03c-0.05,0.01-0.1,0.01-0.15,0.02c-0.05,0.01-0.1,0.02-0.15,0.03   c-0.02,0.01-0.04,0.01-0.06,0.02c-0.07,0.02-0.14,0.05-0.21,0.08c-0.13,0.06-0.26,0.14-0.38,0.21c-0.04,0.02-0.07,0.04-0.11,0.07   c-0.05,0.03-0.1,0.06-0.15,0.09c-0.05,0.03-0.1,0.05-0.15,0.07c-0.01,0-0.01,0-0.02,0.01c0,0,0,0,0,0   c-0.16,0.06-0.33,0.08-0.49,0.12c-0.03,0.01-0.06,0.01-0.09,0.02c0,0-0.01,0-0.01,0c-0.13,0.03-0.25,0.07-0.38,0.12   c0,0-0.01,0-0.01,0c-0.08,0.03-0.15,0.05-0.23,0.08c-0.13,0.04-0.26,0.09-0.38,0.14c-0.05,0.02-0.09,0.04-0.14,0.06   c-0.05,0.02-0.09,0.03-0.14,0.05c0,0,0,0,0,0c-0.04,0.01-0.07,0.03-0.11,0.04c-0.05,0.01-0.09,0.03-0.14,0.04   c-0.04,0.01-0.07,0.02-0.11,0.03c-0.06,0.02-0.12,0.04-0.18,0.06c-0.21,0.07-0.38,0.24-0.58,0.33c-0.14,0.07-0.29,0.11-0.44,0.17   c-0.03,0.01-0.06,0.02-0.09,0.03c-0.05,0.02-0.1,0.04-0.16,0.06c-0.1,0.04-0.2,0.08-0.29,0.12c-0.07,0.03-0.13,0.06-0.2,0.09   c-0.12,0.05-0.24,0.11-0.36,0.16c-0.03,0.02-0.06,0.03-0.09,0.05c-0.07,0.03-0.13,0.06-0.2,0.1c-0.02,0.01-0.04,0.02-0.05,0.03   c-0.05,0.03-0.09,0.06-0.14,0.09c0,0-0.01,0.01-0.01,0.01c0,0,0,0,0,0c-0.06,0.05-0.13,0.09-0.19,0.14   c-0.03,0.02-0.06,0.04-0.08,0.06c-0.01,0.01-0.02,0.01-0.03,0.02c-0.04,0.02-0.09,0.05-0.14,0.06c0,0,0,0,0,0   c-0.04,0.01-0.08,0.03-0.12,0.04c-0.04,0.01-0.07,0.02-0.11,0.03c0,0,0,0,0,0c-0.01,0-0.02,0-0.02,0.01   c-0.02,0-0.04,0.01-0.05,0.01c-0.04,0.01-0.08,0.02-0.12,0.02c-0.16,0.03-0.28,0.07-0.43,0.08c-0.01,0-0.02,0-0.04,0   c-0.03,0-0.05,0-0.08,0.01c-0.04,0-0.08,0.01-0.12,0.02c-0.02,0.01-0.04,0.01-0.06,0.02c-0.03,0.01-0.05,0.02-0.08,0.04   c-0.04,0.02-0.08,0.04-0.12,0.07c-0.1,0.06-0.19,0.13-0.29,0.2c-0.06,0.04-0.11,0.06-0.17,0.08c-0.01,0-0.01,0-0.02,0.01   c-0.06,0.02-0.13,0.02-0.21,0.03c-0.05,0-0.09,0.01-0.13,0.02c0,0-0.01,0-0.01,0c-0.02,0.01-0.04,0.02-0.06,0.02   c-0.04,0.02-0.08,0.04-0.14,0.07c-0.02,0.01-0.05,0.02-0.08,0.03c-0.04,0.01-0.07,0.02-0.1,0.04c-0.13,0.04-0.25,0.09-0.38,0.14   c-0.02,0.01-0.04,0.02-0.06,0.03c-0.14,0.06-0.3,0.17-0.46,0.25c-0.06,0.03-0.12,0.06-0.17,0.08c-0.05,0.02-0.09,0.03-0.14,0.04   c-0.07,0.01-0.14,0.02-0.21,0.02c-0.01,0-0.03,0-0.04,0c-0.1,0-0.2,0-0.3,0.01c-0.12,0.01-0.23,0.03-0.33,0.09   c-0.06,0.03-0.11,0.08-0.16,0.14c-0.07,0.09-0.09,0.2-0.18,0.27c-0.01,0.01-0.03,0.02-0.05,0.03c-0.02,0.01-0.04,0.02-0.06,0.02   c-0.03,0.01-0.05,0.02-0.07,0.03c-0.08,0.04-0.14,0.09-0.22,0.14c-0.03,0.02-0.06,0.03-0.09,0.04c-0.07,0.03-0.12,0.06-0.17,0.09   c-0.02,0.01-0.02,0.07-0.05,0.09c-0.09,0.04-0.23,0-0.35-0.02c-0.04-0.01-0.08-0.01-0.12-0.01c-0.01,0-0.02,0-0.04,0.01   c-0.08,0.01-0.15,0.02-0.22,0.04c-0.14,0.03-0.28,0.07-0.41,0.12c0,0-0.01,0-0.01,0c-0.16,0.05-0.5,0.15-0.57,0.28   c-0.01,0.02-0.02,0.04-0.03,0.06c-0.04,0.11,0.04,0.1-0.17,0.14c-0.02,0-0.03,0.01-0.05,0.01c-0.08,0.02-0.16,0.05-0.25,0.07   c-0.04,0.01-0.09,0.03-0.13,0.04c-0.02,0-0.04,0.01-0.06,0.01c-0.03,0.01-0.06,0.01-0.09,0.02c-0.2,0.03-0.4,0.05-0.6,0.11   c0.01,0.02,0.01,0.03,0.02,0.04c0,0.02,0.01,0.04,0,0.05c0,0.01,0,0.02-0.01,0.03c-0.01,0.03-0.04,0.05-0.07,0.07   c-0.05,0.02-0.11,0.04-0.17,0.04c-0.11,0.02-0.19,0.03-0.28,0.06c0,0,0,0-0.01,0c-0.05,0.01-0.1,0.03-0.16,0.05   c-0.08,0.03-0.16,0.04-0.24,0.06c-0.05,0.01-0.1,0.02-0.14,0.03c-0.06,0.02-0.11,0.03-0.16,0.06c-0.15,0.07-0.26,0.17-0.4,0.26   c-0.19,0.12-0.37,0.2-0.56,0.25c-0.06,0.02-0.12,0.03-0.19,0.04c0,0,0,0,0,0s0,0,0,0c-0.03,0.01-0.07,0.01-0.1,0.02   c-0.04,0.01-0.09,0.01-0.14,0.02c-0.05,0.01-0.13,0.01-0.19,0.03c-0.01,0-0.01,0.01-0.02,0.01c-0.01,0.01-0.03,0.01-0.04,0.02   c-0.06,0.05-0.01,0.12-0.04,0.17c-0.07,0.1-0.21,0.11-0.33,0.11c-0.02,0-0.04,0-0.06,0c-0.04,0-0.08,0.01-0.12,0.01   c-0.26,0.02-0.51,0.05-0.76,0.08c0,0-0.01,0-0.01,0c-0.01,0-0.03,0-0.04,0c-0.09,0.01-0.18,0.02-0.27,0.03   c-0.04,0-0.07,0.01-0.11,0.01c-0.07,0.01-0.15,0.01-0.22,0.01c-0.07,0-0.13,0-0.2,0c-0.12,0-0.34-0.02-0.52,0   c-0.09,0.01-0.17,0.04-0.22,0.1c-0.01,0.02-0.02,0.03-0.03,0.05c0,0.01,0,0.01,0,0.02c0,0,0,0,0,0c0,0.04,0.03,0.08,0.08,0.11   c0.03,0.02,0.06,0.04,0.1,0.06c0.08,0.04,0.17,0.08,0.22,0.11c0.05,0.04,0.09,0.08,0.13,0.12c0.05,0.05,0.09,0.1,0.14,0.14   c0.05,0.05,0.11,0.1,0.17,0.15c0.02,0.02,0.04,0.03,0.06,0.05c0.08,0.08,0.14,0.16,0.19,0.26c0.02,0.03,0.03,0.05,0.05,0.08   c0.03,0.05,0.06,0.09,0.09,0.14c0.02,0.03,0.04,0.05,0.06,0.08c0,0.01,0.01,0.01,0.01,0.02c0.05,0.07,0.1,0.13,0.16,0.18   c0.01,0.01,0.02,0.01,0.02,0.02c0.01,0.01,0.01,0.01,0.02,0.02c0.03,0.02,0.05,0.04,0.07,0.06c0.02,0.02,0.04,0.04,0.06,0.06   c0.03,0.03,0.06,0.06,0.09,0.09c0.18,0.17,0.38,0.3,0.55,0.48c0.04,0.04,0.08,0.08,0.12,0.12c0.05,0.04,0.1,0.09,0.16,0.13   c0,0,0,0,0.01,0.01c0.06,0.04,0.12,0.08,0.18,0.11c0.05,0.03,0.11,0.07,0.16,0.1c0.08,0.05,0.17,0.1,0.25,0.15   c0.03,0.02,0.06,0.04,0.1,0.06c0.07,0.04,0.13,0.08,0.19,0.13c0.04,0.03,0.08,0.06,0.12,0.09c0.05,0.04,0.11,0.08,0.16,0.12   c0.03,0.02,0.06,0.04,0.09,0.06c0.02,0.02,0.05,0.03,0.07,0.05c0,0,0.01,0,0.01,0.01c0.03,0.02,0.06,0.04,0.08,0.05   c0,0,0.01,0,0.01,0.01c0.02,0.01,0.04,0.02,0.06,0.04c0.18,0.1,0.37,0.13,0.57,0.16c0.02,0,0.04,0.01,0.07,0.01   c0.15,0.03,0.3,0.04,0.46,0.04c0.07,0,0.14,0,0.21,0c0.07,0,0.15,0,0.22,0c0.01,0,0.03,0,0.04,0c0.11,0,0.25,0.02,0.34-0.02   c0.03-0.01,0.05-0.04,0.08-0.06c0.02-0.02,0.05-0.04,0.07-0.05c0.08-0.03,0.17-0.01,0.25-0.02c0.05,0,0.08-0.01,0.12-0.02   c0,0,0.01,0,0.01,0c0,0,0,0,0,0c0.02-0.01,0.04-0.02,0.07-0.02c0.01-0.01,0.03-0.01,0.04-0.02c0.01,0,0.01,0,0.02-0.01   c0.07-0.02,0.14-0.02,0.21-0.03c0.01,0,0.01,0,0.02,0c0.05-0.01,0.11-0.02,0.16-0.03c0.01,0,0.02,0,0.03-0.01   c0.01,0,0.02,0,0.04-0.01c0.07-0.01,0.14-0.03,0.2-0.05c0.05-0.02,0.09-0.03,0.14-0.05c0.06-0.03,0.11-0.05,0.16-0.07   c0.19-0.08,0.36-0.14,0.58-0.19c0.27-0.06,0.54-0.15,0.8-0.26c0.37-0.16,0.73-0.34,1.09-0.52c0.08-0.04,0.16-0.08,0.24-0.12   c0.04-0.02,0.09-0.04,0.13-0.06c0.03-0.01,0.07-0.03,0.1-0.04c0,0,0.01,0,0.01,0c0.04-0.02,0.08-0.04,0.12-0.05   c0.04-0.02,0.07-0.03,0.11-0.05c0.11-0.05,0.22-0.09,0.33-0.14c0.05-0.02,0.1-0.04,0.15-0.06c0.21-0.09,0.42-0.19,0.62-0.29   c0.1-0.05,0.2-0.12,0.3-0.18c0.08-0.05,0.16-0.11,0.24-0.16c0.05-0.03,0.1-0.06,0.15-0.08c0.12-0.06,0.24-0.12,0.36-0.17   c0.02-0.01,0.04-0.02,0.06-0.03c0.06-0.03,0.11-0.05,0.17-0.08c0.07-0.03,0.13-0.08,0.2-0.11c0.02-0.01,0.03-0.01,0.05-0.03   c0.2-0.11,0.39-0.22,0.59-0.34c0.04-0.03,0.09-0.05,0.13-0.08c0.05-0.03,0.1-0.06,0.15-0.09c0.06-0.04,0.12-0.07,0.17-0.11   c0.03-0.02,0.05-0.03,0.08-0.05c0.04-0.03,0.09-0.05,0.13-0.08c0,0,0.01,0,0.01-0.01c0.17-0.11,0.37-0.24,0.52-0.33   c0.16-0.1,0.34-0.15,0.5-0.23c0.02-0.01,0.04-0.02,0.06-0.03c0,0,0,0,0,0c0.04-0.02,0.08-0.04,0.13-0.07   c0.01,0,0.01-0.01,0.02-0.01c0.12-0.07,0.24-0.14,0.37-0.21c0.05-0.03,0.1-0.06,0.15-0.09c0.11-0.06,0.22-0.12,0.33-0.18   c0.01-0.01,0.02-0.01,0.03-0.02c0.03-0.02,0.07-0.04,0.1-0.06c0.13-0.09,0.25-0.19,0.4-0.26c0.09-0.04,0.18-0.08,0.28-0.11   c0.01,0,0.02-0.01,0.02-0.01c0.14-0.05,0.28-0.1,0.42-0.15c0.04-0.01,0.07-0.03,0.11-0.05c0.02-0.01,0.04-0.01,0.05-0.02   c0.06-0.02,0.12-0.04,0.18-0.06c0.01,0,0.01,0,0.02-0.01c0.14-0.04,0.28-0.07,0.41-0.12c0.23-0.1,0.46-0.23,0.69-0.34   c0.06-0.03,0.12-0.06,0.19-0.08c0.01,0,0.02-0.01,0.02-0.01c0.13-0.05,0.26-0.11,0.39-0.16c0.01,0,0.02-0.01,0.03-0.01   c0,0,0,0.01-0.01,0.01c-0.01,0.01-0.01,0.01-0.02,0.02c-0.02,0.02-0.04,0.05-0.06,0.07c-0.03,0.04-0.07,0.07-0.11,0.1   c-0.01,0.01-0.02,0.01-0.02,0.02c-0.03,0.02-0.07,0.06-0.1,0.09c-0.01,0.01-0.01,0.02-0.02,0.02c-0.03,0.04-0.05,0.08-0.07,0.12   c-0.01,0.02-0.02,0.03-0.03,0.05c-0.03,0.05-0.05,0.1-0.07,0.16c-0.01,0.03-0.03,0.06-0.04,0.09c-0.01,0.02-0.02,0.04-0.03,0.05   c-0.02,0.03-0.03,0.07-0.05,0.1c0,0.01-0.01,0.01-0.01,0.02c-0.03,0.05-0.06,0.1-0.1,0.15c-0.03,0.04-0.06,0.08-0.09,0.12   c-0.04,0.05-0.07,0.09-0.11,0.14c-0.02,0.02-0.04,0.05-0.06,0.07c0,0,0,0,0,0c0,0,0,0,0,0c-0.02,0.02-0.04,0.05-0.05,0.07   c-0.04,0.05-0.07,0.1-0.1,0.16c-0.01,0.01-0.02,0.03-0.02,0.04c-0.02,0.03-0.04,0.07-0.06,0.1c0.01,0.03-0.01,0.06-0.05,0.09   c-0.03,0.05-0.06,0.09-0.08,0.14c0,0,0,0.01-0.01,0.01c-0.02,0.04-0.05,0.08-0.07,0.11c-0.02,0.03-0.04,0.07-0.07,0.1c0,0,0,0,0,0   c0,0-0.01,0.01-0.01,0.01c-0.06,0.09-0.12,0.18-0.18,0.27c-0.01,0.02-0.02,0.03-0.04,0.05c-0.01,0.01-0.01,0.02-0.02,0.03   c-0.05,0.07-0.1,0.14-0.15,0.22c-0.04,0.06-0.08,0.12-0.12,0.18c0,0.01-0.01,0.01-0.01,0.02c-0.02,0.03-0.04,0.06-0.06,0.09   c-0.02,0.03-0.04,0.06-0.06,0.09c-0.06,0.09-0.11,0.18-0.17,0.28c0,0,0,0,0,0c-0.04,0.07-0.08,0.14-0.11,0.21   c-0.05,0.1-0.1,0.2-0.15,0.3c-0.05,0.1-0.11,0.21-0.16,0.31c-0.01,0.02-0.02,0.04-0.03,0.07c-0.02,0.04-0.04,0.08-0.06,0.12   c-0.02,0.03-0.04,0.07-0.05,0.1c-0.02,0.04-0.05,0.08-0.07,0.12c-0.05,0.08-0.09,0.16-0.15,0.22c0,0,0,0,0,0   c-0.03,0.04-0.07,0.07-0.11,0.1c-0.04,0.03-0.08,0.05-0.13,0.07c-0.01,0-0.02,0.01-0.03,0.01c-0.03,0.01-0.05,0.01-0.08,0.02   c-0.07,0.01-0.14,0.01-0.21,0c-0.04,0-0.08,0-0.11,0c-0.06,0-0.12,0.01-0.18,0.03c-0.01,0-0.02,0.01-0.03,0.02   c-0.02,0.01-0.04,0.02-0.06,0.03c-0.08,0.05-0.15,0.1-0.21,0.17c-0.03,0.03-0.06,0.07-0.08,0.1c-0.03,0.05-0.07,0.1-0.09,0.16   c0,0,0,0.01-0.01,0.01c-0.02,0.03-0.03,0.07-0.05,0.11c-0.03,0.09-0.06,0.18-0.09,0.27c-0.01,0.04-0.02,0.08-0.03,0.11   c0,0.01-0.01,0.03-0.01,0.04c-0.01,0.03-0.01,0.05-0.02,0.07c0,0.01-0.01,0.03-0.01,0.04c0,0.01-0.01,0.03-0.01,0.04   c-0.01,0.03-0.01,0.05-0.02,0.08c-0.01,0.05-0.03,0.1-0.05,0.15c-0.01,0.02-0.01,0.04-0.02,0.05c-0.01,0.03-0.02,0.06-0.04,0.09   c-0.01,0.02-0.02,0.04-0.03,0.05c-0.01,0.02-0.02,0.04-0.03,0.06c-0.04,0.06-0.08,0.13-0.12,0.18c-0.01,0.01-0.01,0.02-0.02,0.03   c-0.02,0.03-0.04,0.05-0.06,0.08c-0.04,0.05-0.09,0.1-0.13,0.15c-0.07,0.08-0.15,0.16-0.23,0.24c-0.03,0.03-0.06,0.07-0.09,0.11   c-0.03,0.03-0.05,0.06-0.07,0.09c-0.01,0.01-0.01,0.01-0.02,0.02c0,0.01-0.01,0.01-0.01,0.02c-0.04,0.06-0.07,0.12-0.1,0.18   c-0.01,0.03-0.03,0.06-0.05,0.08c0,0,0,0.01-0.01,0.01c-0.03,0.04-0.06,0.09-0.11,0.13c-0.05,0.04-0.1,0.06-0.16,0.09   c-0.02,0.01-0.04,0.02-0.06,0.03c-0.03,0.02-0.06,0.03-0.09,0.05c-0.01,0-0.01,0.01-0.02,0.01c-0.07,0.06-0.13,0.13-0.18,0.21   c0,0.01-0.01,0.01-0.01,0.02c-0.02,0.03-0.05,0.07-0.07,0.1c-0.02,0.02-0.03,0.05-0.05,0.07c-0.03,0.04-0.06,0.09-0.1,0.14   c-0.01,0.02-0.02,0.03-0.03,0.05c-0.02,0.03-0.04,0.06-0.06,0.09c-0.03,0.04-0.06,0.08-0.09,0.13c0,0.01-0.01,0.01-0.01,0.02   c0,0.01-0.01,0.01-0.01,0.02c-0.02,0.03-0.05,0.07-0.08,0.1c-0.03,0.04-0.07,0.08-0.1,0.12c-0.02,0.02-0.03,0.03-0.05,0.05   c-0.05,0.05-0.11,0.09-0.17,0.13c-0.08,0.06-0.17,0.11-0.25,0.17c-0.04,0.03-0.08,0.06-0.11,0.09c-0.01,0.01-0.02,0.02-0.03,0.03   c-0.01,0.01-0.01,0.01-0.02,0.02c-0.06,0.06-0.11,0.13-0.16,0.2c-0.03,0.05-0.07,0.11-0.1,0.17c-0.01,0.01-0.01,0.02-0.02,0.03   c-0.03,0.07-0.07,0.14-0.1,0.21c-0.01,0.02-0.02,0.05-0.04,0.07c0,0,0,0.01-0.01,0.01c-0.02,0.03-0.03,0.07-0.05,0.1   c0,0,0,0.01-0.01,0.01c-0.05,0.09-0.1,0.18-0.16,0.26c-0.12,0.16-0.25,0.29-0.39,0.42c-0.03,0.03-0.06,0.05-0.09,0.08   c-0.03,0.03-0.06,0.06-0.09,0.09c-0.02,0.03-0.05,0.06-0.07,0.09c-0.07,0.08-0.14,0.17-0.21,0.24c-0.03,0.03-0.07,0.06-0.1,0.09   c-0.05,0.04-0.1,0.07-0.16,0.08c0,0-0.01,0-0.01,0c0,0,0,0-0.01,0c-0.01,0.02-0.02,0.04-0.02,0.07c-0.02,0.07-0.05,0.14-0.07,0.22   c0,0,0,0,0,0.01c-0.02,0.06-0.05,0.12-0.07,0.18c-0.02,0.05-0.04,0.09-0.06,0.13c-0.05,0.11-0.1,0.22-0.15,0.33   c-0.02,0.03-0.03,0.07-0.05,0.1c-0.03,0.05-0.06,0.11-0.09,0.16c-0.01,0.02-0.02,0.04-0.03,0.06c-0.01,0.03-0.03,0.05-0.04,0.08   c-0.06,0.12-0.13,0.23-0.2,0.35c-0.02,0.03-0.04,0.06-0.06,0.1c-0.04,0.07-0.08,0.13-0.12,0.2c-0.01,0.01-0.01,0.02-0.02,0.04   c-0.04,0.07-0.08,0.14-0.13,0.22c-0.05,0.09-0.11,0.17-0.18,0.25c-0.01,0.01-0.01,0.02-0.02,0.03c-0.02,0.02-0.03,0.04-0.05,0.05   c-0.04,0.04-0.08,0.08-0.12,0.11c-0.02,0.02-0.04,0.03-0.07,0.04c-0.09,0.05-0.19,0.07-0.28,0.11c-0.04,0.01-0.07,0.03-0.11,0.04   c-0.01,0-0.01,0.01-0.02,0.01c-0.16,0.07-0.09,0.01-0.2,0.18c-0.04,0.06-0.07,0.11-0.1,0.17c-0.04,0.08-0.09,0.16-0.13,0.25   c-0.06,0.12-0.11,0.24-0.16,0.35c0,0,0,0.01,0,0.01c-0.01,0.03-0.03,0.05-0.04,0.08c-0.01,0.03-0.03,0.06-0.04,0.09   c0,0.01-0.01,0.02-0.01,0.02c-0.01,0.03-0.03,0.05-0.04,0.08c-0.02,0.04-0.04,0.09-0.07,0.13c-0.02,0.04-0.04,0.08-0.07,0.12   c0,0,0,0,0,0c-0.04,0.07-0.08,0.14-0.12,0.21c0,0.01-0.01,0.01-0.01,0.02c-0.04,0.07-0.08,0.14-0.13,0.2   c-0.03,0.05-0.06,0.1-0.1,0.15c0,0,0,0,0,0c-0.02,0.03-0.04,0.06-0.05,0.08c-0.03,0.05-0.06,0.1-0.09,0.14   c-0.02,0.03-0.03,0.05-0.05,0.08c-0.12,0.18-0.24,0.35-0.38,0.53c-0.01,0.01-0.01,0.02-0.02,0.03c0,0,0,0.01-0.01,0.01   c-0.02,0.03-0.04,0.05-0.06,0.08c-0.02,0.03-0.04,0.05-0.06,0.08c-0.01,0.01-0.02,0.02-0.03,0.04c-0.01,0.02-0.02,0.03-0.03,0.05   c-0.06,0.09-0.12,0.17-0.18,0.26c-0.04,0.05-0.08,0.11-0.11,0.16c-0.01,0.01-0.01,0.02-0.02,0.03c-0.06,0.09-0.12,0.26-0.18,0.42   c-0.01,0.01-0.01,0.03-0.02,0.04c-0.03,0.08-0.07,0.15-0.1,0.2c-0.02,0.03-0.04,0.05-0.06,0.07c-0.03,0.02-0.05,0.04-0.08,0.04   c-0.01,0.04-0.02,0.07-0.03,0.11c-0.01,0.04-0.03,0.09-0.05,0.13c-0.02,0.04-0.04,0.07-0.06,0.11c-0.03,0.06-0.07,0.12-0.11,0.17   c-0.04,0.05-0.07,0.1-0.11,0.16c-0.03,0.04-0.05,0.07-0.07,0.11c0,0,0,0,0,0c-0.01,0.02-0.02,0.04-0.03,0.06   c-0.02,0.03-0.04,0.07-0.05,0.1c0,0,0,0,0,0c-0.02,0.04-0.04,0.08-0.05,0.11c-0.02,0.05-0.04,0.1-0.06,0.14   c-0.02,0.06-0.05,0.12-0.08,0.18c-0.03,0.07-0.07,0.13-0.11,0.19c-0.01,0.01-0.01,0.02-0.02,0.03c-0.01,0.01-0.01,0.02-0.02,0.04   c-0.07,0.1-0.14,0.2-0.21,0.3c-0.01,0.02-0.02,0.03-0.04,0.05c0,0,0,0.01-0.01,0.01c-0.04,0.05-0.08,0.11-0.13,0.16   c-0.01,0.02-0.03,0.04-0.04,0.05c-0.02,0.03-0.04,0.05-0.06,0.08c-0.03,0.04-0.06,0.09-0.1,0.13c-0.01,0.01-0.01,0.02-0.02,0.03   c-0.01,0.01-0.02,0.02-0.02,0.04c-0.12,0.17-0.23,0.36-0.33,0.54c-0.02,0.03-0.03,0.06-0.05,0.09c-0.01,0.03-0.03,0.06-0.04,0.08   c-0.02,0.05-0.05,0.09-0.07,0.14c-0.02,0.04-0.04,0.08-0.06,0.12c-0.01,0.02-0.02,0.05-0.03,0.07c-0.01,0.01-0.01,0.02-0.02,0.04   c-0.01,0.03-0.02,0.07-0.03,0.1c0,0.01-0.01,0.02-0.01,0.03c0,0.01,0,0.01-0.01,0.02c-0.02,0.06-0.03,0.12-0.05,0.19   c-0.03,0.13-0.06,0.26-0.11,0.37c0,0.01,0,0.01-0.01,0.02c-0.01,0.03-0.03,0.06-0.04,0.09c-0.01,0.02-0.02,0.04-0.03,0.06   c0,0.01-0.01,0.02-0.01,0.02c-0.01,0.02-0.03,0.04-0.04,0.06c-0.12,0.17-0.27,0.33-0.36,0.52c0,0.01-0.01,0.01-0.01,0.02   c-0.03,0.07-0.06,0.14-0.07,0.22c0,0.02-0.01,0.03-0.01,0.05c0,0.02,0,0.04,0,0.06c0,0.01,0,0.02,0,0.03   c0,0.55-0.14,1.06-0.23,1.59c-0.01,0.04-0.01,0.08-0.02,0.12c-0.01,0.08-0.02,0.15-0.03,0.23c0,0,0,0.01,0,0.01   c0,0.02,0,0.03-0.01,0.05c-0.01,0.07-0.01,0.13-0.02,0.2c-0.01,0.08-0.01,0.17-0.02,0.27c0,0.02,0,0.03,0,0.05   c0,0.03-0.01,0.06-0.01,0.1c0,0.03-0.01,0.05-0.01,0.08c0,0.04-0.01,0.08-0.02,0.11c-0.02,0.11-0.04,0.22-0.08,0.31   c-0.01,0.02-0.01,0.03-0.02,0.05c-0.02,0.06-0.05,0.11-0.07,0.16c-0.06,0.13-0.11,0.26-0.12,0.43c-0.01,0.09-0.01,0.19-0.01,0.3   c0,0.08,0.01,0.17,0.03,0.25c0.01,0.06,0.03,0.11,0.05,0.16c0.02,0.04,0.03,0.07,0.05,0.1c0.03,0.04,0.06,0.07,0.11,0.1   c0.02,0.02,0.05,0.03,0.08,0.05c0.01,0.01,0.03,0.01,0.04,0.02h0c0.03,0.02,0.06,0.03,0.1,0.04c0,0,0.01,0,0.01,0.01c0,0,0,0,0,0   c0.11,0.04,0.23,0.07,0.32,0.09c0,0,0.01,0,0.01,0c0.03,0,0.06,0,0.09,0c0.03,0,0.06,0,0.09-0.01c0.01,0,0.02,0,0.02,0   c0.05,0,0.09,0.01,0.12,0.03c0.02,0.02,0.04,0.05,0.05,0.09c0.02,0.08,0.03,0.18,0.08,0.22c0.01,0.01,0.03,0.02,0.04,0.03   c0.01,0.01,0.03,0.02,0.04,0.03c0.07,0.05,0.16,0.09,0.24,0.13c0.03,0.01,0.06,0.03,0.09,0.04c0.02,0.01,0.03,0.01,0.05,0.02   c0.04,0.02,0.08,0.03,0.11,0.05c0.05,0.02,0.09,0.04,0.13,0.05c0.06,0.03,0.12,0.05,0.18,0.07c0.05,0.02,0.09,0.04,0.14,0.07   c0.02,0.01,0.03,0.02,0.05,0.04c0.07,0.06,0.13,0.14,0.2,0.17c0,0,0,0,0.01,0c0.13,0.06,0.26,0.02,0.38,0.02   c0.04,0,0.08,0,0.12,0.01c0.01,0,0.01,0,0.02,0.01c0.04,0.01,0.08,0.04,0.12,0.08c0.08,0.1,0.09,0.15,0.18,0.21   c0,0,0.01,0.01,0.01,0.01c0.01,0.01,0.02,0.01,0.03,0.02c0.01,0.01,0.02,0.01,0.03,0.02c0.08,0.05,0.12,0.07,0.16,0.07   c0.01,0,0.01,0,0.02,0c0.03,0,0.07-0.01,0.13-0.02c0.03-0.01,0.07-0.02,0.12-0.05c0.06-0.03,0.13-0.07,0.2-0.11   c0.1-0.07,0.19-0.15,0.2-0.23c0.01-0.04,0-0.07-0.03-0.1c0.01-0.02,0.03-0.04,0.05-0.06c0.04-0.05,0.09-0.1,0.14-0.15   c0,0,0.01-0.01,0.01-0.01c0.06-0.06,0.12-0.11,0.18-0.16c0.03-0.03,0.06-0.05,0.09-0.07c0.04-0.03,0.08-0.05,0.12-0.07   c0.01,0,0.02-0.01,0.02-0.01c0.01,0,0.01,0,0.02,0.01c0,0.05,0.01,0.1,0.01,0.16c0,0.04,0,0.08-0.01,0.12   c0,0.03-0.01,0.05-0.02,0.07c0,0.01-0.01,0.01-0.01,0.02c-0.02,0.03-0.03,0.06-0.06,0.09c-0.03,0.03-0.06,0.06-0.1,0.09   c-0.05,0.04-0.1,0.08-0.15,0.14c-0.03,0.04-0.05,0.07-0.07,0.11c-0.01,0.02-0.02,0.05-0.03,0.07c-0.01,0.02-0.01,0.04-0.02,0.05   c-0.01,0.04-0.02,0.09-0.02,0.13c0,0.02,0,0.03,0,0.05c0,0.02,0.01,0.04,0.01,0.07c0.02,0.05,0.04,0.11,0.08,0.15   c0.04,0.04,0.08,0.08,0.13,0.12c0.02,0.01,0.04,0.02,0.06,0.03c0.04,0.02,0.08,0.03,0.13,0.05c0.02,0.01,0.05,0.01,0.08,0.02   c0.07,0.01,0.14,0.02,0.22,0.02c0.05,0,0.1-0.01,0.15-0.02c0.01,0,0.02-0.01,0.02-0.01c0.02-0.01,0.04-0.02,0.06-0.03   c0.01,0,0.02-0.01,0.02-0.02c0.03-0.02,0.06-0.06,0.09-0.1c0.03-0.04,0.05-0.09,0.07-0.13c0.01-0.03,0.03-0.06,0.04-0.09   c0.03-0.05,0.06-0.12,0.1-0.19c0.02-0.04,0.04-0.08,0.07-0.12c0.01-0.01,0.01-0.03,0.02-0.04c0.05-0.09,0.08-0.18,0.09-0.26   c0-0.06,0.01-0.12,0.02-0.18c0.01-0.1,0.04-0.21,0.06-0.3c0.01-0.02,0.01-0.04,0.02-0.06c0.01-0.04,0.03-0.08,0.04-0.12   c0.01-0.04,0.03-0.07,0.04-0.11c0.02-0.05,0.04-0.1,0.06-0.15c0.02-0.04,0.03-0.08,0.05-0.12c0.01-0.03,0.03-0.07,0.04-0.1   c0.01-0.03,0.02-0.06,0.04-0.09c0,0,0,0,0,0c0,0,0,0,0,0c0.02-0.05,0.05-0.11,0.07-0.17c0.01-0.02,0.02-0.04,0.02-0.06   c0.01-0.02,0.02-0.04,0.02-0.06c0.02-0.05,0.04-0.1,0.06-0.16c0.01-0.02,0.02-0.04,0.02-0.06c0.01-0.03,0.02-0.05,0.03-0.08   c0.02-0.06,0.05-0.11,0.07-0.17c0.02-0.04,0.04-0.08,0.06-0.12c0.02-0.05,0.05-0.1,0.07-0.15c0.03-0.06,0.06-0.11,0.09-0.17   c0.01-0.02,0.02-0.04,0.03-0.06c0.02-0.04,0.05-0.09,0.07-0.13c0-0.01,0.01-0.02,0.01-0.02c0.03-0.06,0.06-0.12,0.09-0.18   c0.06-0.13,0.13-0.27,0.19-0.4c0.03-0.05,0.05-0.11,0.08-0.16c0-0.01,0-0.03,0.02-0.05c0.01-0.01,0.01-0.02,0.02-0.03   c0,0,0-0.01,0.01-0.01c0.01-0.02,0.02-0.04,0.03-0.06c0.03-0.07,0.07-0.14,0.1-0.21c0.02-0.04,0.04-0.08,0.06-0.12   c0.01-0.03,0.02-0.05,0.04-0.08c0.07-0.14,0.14-0.28,0.22-0.41c0.01-0.02,0.03-0.05,0.04-0.07c0.01-0.03,0.03-0.05,0.04-0.08   c0.04-0.07,0.08-0.14,0.12-0.21c0.03-0.06,0.07-0.12,0.1-0.18c0.01-0.03,0.03-0.05,0.04-0.08c0.03-0.05,0.05-0.1,0.08-0.15   c0.01-0.02,0.03-0.05,0.04-0.07c0-0.01,0.01-0.02,0.01-0.02c0.01-0.02,0.02-0.03,0.02-0.05c0.01-0.02,0.02-0.04,0.03-0.05   c0-0.01,0.01-0.02,0.01-0.03c0,0,0,0,0,0c0,0,0,0,0,0c0.03-0.06,0.06-0.12,0.09-0.18c0.02-0.04,0.04-0.08,0.06-0.12   c0.01-0.03,0.03-0.06,0.04-0.09c0.01-0.03,0.03-0.06,0.04-0.09c0.04-0.08,0.08-0.16,0.11-0.25c0.05-0.11,0.1-0.21,0.14-0.32   c0.01-0.03,0.03-0.06,0.04-0.09c0.05-0.12,0.1-0.24,0.15-0.35c0.09-0.2,0.17-0.41,0.26-0.61c0.01-0.01,0.01-0.03,0.02-0.04   c0.03-0.08,0.07-0.16,0.1-0.24c0,0,0,0,0,0c0,0,0,0,0,0c0.02-0.04,0.03-0.08,0.05-0.12c0.01-0.02,0.02-0.04,0.02-0.06   c0.05-0.11,0.09-0.22,0.14-0.32c0.02-0.04,0.04-0.08,0.05-0.12c0,0,0,0,0,0c0.01-0.03,0.02-0.06,0.04-0.08c0,0,0,0,0,0   c0.02-0.04,0.04-0.08,0.05-0.12c0.01-0.03,0.03-0.07,0.04-0.1c0.01-0.02,0.02-0.04,0.02-0.06c0.03-0.06,0.05-0.12,0.08-0.17   c0.04-0.08,0.07-0.16,0.11-0.24c0.01-0.03,0.03-0.05,0.04-0.08c0.02-0.05,0.05-0.11,0.07-0.16c0.02-0.04,0.04-0.08,0.06-0.12   c0.02-0.03,0.03-0.06,0.05-0.1c0,0,0,0,0,0c0,0,0,0,0,0c0,0,0,0,0,0c0.01-0.02,0.02-0.03,0.02-0.05c0,0,0-0.01,0.01-0.01   c0,0,0-0.01,0-0.01c0.04-0.07,0.07-0.15,0.11-0.22c0.02-0.04,0.04-0.08,0.06-0.11c0,0,0-0.01,0.01-0.01   c0.05-0.09,0.1-0.18,0.14-0.27c0,0,0,0,0,0c0,0,0,0,0,0c0.02-0.04,0.05-0.09,0.07-0.13c0.01-0.02,0.02-0.03,0.03-0.05   c0.01-0.01,0.01-0.02,0.02-0.03c0,0,0,0,0-0.01c0.02-0.03,0.04-0.07,0.06-0.1c0.08-0.14,0.16-0.29,0.23-0.44c0,0,0-0.01,0-0.01   c0.04-0.07,0.07-0.14,0.11-0.21c0.06-0.12,0.12-0.24,0.19-0.36c0.03-0.06,0.07-0.12,0.1-0.19c0.01-0.01,0.02-0.03,0.02-0.04   c0.01-0.02,0.02-0.03,0.03-0.05c0.01-0.02,0.03-0.05,0.04-0.07c0-0.01,0.01-0.01,0.01-0.02c0.01-0.01,0.02-0.03,0.02-0.04   c0.02-0.03,0.03-0.05,0.05-0.08c0.05-0.08,0.09-0.16,0.14-0.24c0.01-0.01,0.01-0.02,0.01-0.02c0.01-0.01,0.02-0.03,0.03-0.04   c0.02-0.03,0.04-0.06,0.06-0.1c0,0,0.01-0.01,0.01-0.01c0.07-0.1,0.15-0.21,0.23-0.31c0.04-0.06,0.09-0.11,0.13-0.16   c0.01-0.02,0.03-0.03,0.04-0.05c0.02-0.02,0.04-0.05,0.06-0.07c0.04-0.05,0.08-0.1,0.12-0.14c0.02-0.02,0.04-0.05,0.06-0.07   c0.01-0.01,0.02-0.02,0.02-0.03c0.02-0.02,0.03-0.04,0.05-0.06c0.02-0.03,0.05-0.05,0.07-0.08c0.09-0.1,0.19-0.21,0.28-0.32   c0.14-0.17,0.28-0.34,0.39-0.52c0.02-0.03,0.04-0.07,0.06-0.1c0.01-0.01,0.01-0.02,0.02-0.03c0.01-0.02,0.02-0.03,0.03-0.05   c0.01-0.02,0.02-0.04,0.03-0.06c0.04-0.08,0.08-0.15,0.12-0.23c0.01-0.02,0.02-0.04,0.03-0.05c0-0.01,0.01-0.01,0.01-0.02   c0,0,0,0,0,0c0,0,0,0,0,0c0.03-0.05,0.05-0.09,0.08-0.14c0,0,0,0,0,0c0.04-0.07,0.08-0.13,0.13-0.19c0.02-0.03,0.04-0.05,0.06-0.08   c0.01-0.01,0.01-0.02,0.02-0.03c0.01-0.02,0.02-0.03,0.04-0.05c0,0,0,0,0-0.01c0.01-0.01,0.01-0.02,0.02-0.03   c0.06-0.08,0.13-0.15,0.19-0.23c0.03-0.03,0.06-0.07,0.09-0.1c0,0,0.01-0.01,0.01-0.01c0.08-0.09,0.16-0.18,0.24-0.27   c0.01-0.01,0.02-0.02,0.03-0.04c0.03-0.04,0.07-0.08,0.1-0.12c0,0,0.01-0.01,0.01-0.01c0.03-0.03,0.05-0.06,0.08-0.09   c0.01-0.01,0.02-0.02,0.03-0.04c0.01-0.01,0.01-0.01,0.02-0.02c0.05-0.07,0.1-0.13,0.15-0.2c0.01-0.01,0.02-0.03,0.03-0.04   c0.01-0.01,0.01-0.02,0.02-0.03c0.09-0.13,0.17-0.28,0.25-0.42c0.01-0.02,0.02-0.03,0.03-0.05c0.01-0.02,0.02-0.03,0.03-0.05   c0.01-0.02,0.02-0.04,0.03-0.05c0.01-0.01,0.01-0.03,0.02-0.04c0.02-0.03,0.04-0.06,0.05-0.09c0.04-0.06,0.08-0.13,0.12-0.19   c0,0,0.01-0.01,0.01-0.01c0-0.01,0.01-0.01,0.01-0.02c0.02-0.02,0.03-0.05,0.05-0.07c0.02-0.03,0.04-0.05,0.06-0.08   c0,0,0.01-0.01,0.01-0.01c0.03-0.04,0.06-0.08,0.09-0.11c0.01-0.01,0.02-0.02,0.03-0.04c0.02-0.02,0.04-0.05,0.06-0.07   c0.01-0.01,0.02-0.02,0.03-0.03c0.04-0.06,0.09-0.11,0.13-0.17c0.01-0.01,0.02-0.03,0.03-0.04c0.01-0.02,0.03-0.04,0.04-0.07   c0,0,0,0,0-0.01c0.03-0.05,0.06-0.09,0.08-0.14c0.01-0.02,0.03-0.04,0.04-0.06c0.07-0.11,0.14-0.21,0.21-0.32c0,0,0,0,0,0   c0.04-0.06,0.08-0.11,0.11-0.17c0.02-0.03,0.05-0.07,0.07-0.1c0.03-0.04,0.06-0.08,0.09-0.13c0.03-0.04,0.06-0.08,0.09-0.13   c0.01-0.01,0.01-0.01,0.02-0.02c0.04-0.05,0.08-0.11,0.12-0.16c0.01-0.01,0.02-0.03,0.03-0.04c0.01-0.01,0.02-0.03,0.03-0.04   c0.07-0.1,0.15-0.19,0.23-0.28c0.02-0.02,0.04-0.05,0.06-0.07c0,0,0,0,0,0c0.02-0.02,0.04-0.04,0.05-0.06c0,0,0.01-0.01,0.01-0.01   c0,0,0,0,0,0c0,0,0,0,0,0c0.01-0.01,0.01-0.01,0.02-0.02c0.02-0.03,0.05-0.06,0.08-0.08c0.02-0.02,0.04-0.05,0.07-0.07   c0.02-0.02,0.03-0.03,0.05-0.05c0.07-0.07,0.14-0.14,0.21-0.22c0.02-0.02,0.03-0.03,0.04-0.05c0,0,0,0,0.01-0.01   c0.01-0.01,0.02-0.02,0.02-0.03c0,0,0,0,0.01-0.01c0.04-0.05,0.08-0.1,0.11-0.15c0.01-0.01,0.02-0.02,0.02-0.03   c0-0.01,0.01-0.01,0.01-0.02c0-0.01,0.01-0.01,0.01-0.02c0.02-0.02,0.04-0.05,0.05-0.07c0.02-0.02,0.03-0.04,0.05-0.06   c0.02-0.03,0.05-0.07,0.07-0.1c0.01-0.01,0.01-0.01,0.02-0.02c0.04-0.05,0.07-0.1,0.11-0.15c0.03-0.04,0.06-0.09,0.09-0.13   c0.01-0.02,0.03-0.04,0.04-0.06c0.02-0.03,0.05-0.07,0.07-0.1c0.02-0.02,0.03-0.04,0.05-0.07c0.02-0.02,0.03-0.05,0.05-0.07   c0.05-0.08,0.11-0.16,0.16-0.23c0.01-0.01,0.02-0.02,0.02-0.03c0.03-0.04,0.05-0.08,0.08-0.11c0,0,0,0,0,0   c0-0.01,0.01-0.01,0.01-0.02c0.05-0.08,0.11-0.15,0.16-0.23c0.02-0.03,0.05-0.07,0.08-0.1c0.01-0.02,0.03-0.04,0.04-0.06   c0.07-0.09,0.14-0.17,0.21-0.26c0.01-0.01,0.02-0.02,0.03-0.04c0.01-0.01,0.03-0.03,0.04-0.04c0.03-0.03,0.06-0.06,0.09-0.09   c0.02-0.02,0.05-0.05,0.07-0.07c0.02-0.02,0.03-0.03,0.05-0.05c0.01-0.01,0.02-0.02,0.03-0.02c0.01-0.01,0.02-0.02,0.03-0.02   c0.06-0.06,0.13-0.12,0.19-0.18c0.06-0.05,0.11-0.11,0.17-0.16c0.01-0.01,0.02-0.02,0.03-0.03c0.04-0.04,0.07-0.07,0.1-0.11   c0.01-0.01,0.02-0.02,0.02-0.03c0.08-0.09,0.16-0.19,0.23-0.29c0.01-0.01,0.02-0.03,0.03-0.04c0.02-0.03,0.04-0.06,0.05-0.1   c0.01-0.01,0.01-0.02,0.01-0.03c0,0,0-0.01,0.01-0.01c0.01-0.03,0.02-0.05,0.03-0.08c0,0,0,0,0-0.01c0,0,0-0.01,0-0.01   c0.01-0.04,0.03-0.07,0.04-0.1c0.04-0.11,0.1-0.21,0.16-0.3c0.05-0.08,0.1-0.16,0.16-0.24c0.05-0.08,0.11-0.15,0.17-0.23   c0.01-0.02,0.03-0.04,0.04-0.06c0.02-0.02,0.03-0.04,0.05-0.06c0.01-0.01,0.01-0.02,0.02-0.03c0.01-0.01,0.02-0.03,0.03-0.04   c0.01-0.01,0.02-0.02,0.03-0.04c0.01-0.02,0.02-0.03,0.04-0.05c0.02-0.03,0.05-0.06,0.07-0.1c0.01-0.01,0.02-0.03,0.03-0.04   c0.04-0.06,0.08-0.11,0.12-0.17c0-0.01,0.01-0.01,0.01-0.02c0.02-0.02,0.03-0.05,0.05-0.07c0.02-0.02,0.03-0.05,0.05-0.07   c0.05-0.08,0.11-0.16,0.16-0.24c0.01-0.02,0.03-0.04,0.04-0.06c0.03-0.05,0.06-0.09,0.1-0.14c0.02-0.03,0.04-0.06,0.07-0.09   c0,0,0-0.01,0.01-0.01c0.01-0.01,0.02-0.03,0.03-0.04c0.01-0.01,0.02-0.03,0.03-0.04c0.01-0.02,0.03-0.04,0.04-0.06   c0.02-0.03,0.05-0.06,0.07-0.1c0.03-0.04,0.06-0.09,0.09-0.13c0.01-0.01,0.02-0.03,0.03-0.04c0.01-0.01,0.02-0.03,0.03-0.04   c0,0,0.01-0.01,0.01-0.01c0.02-0.02,0.03-0.04,0.05-0.06c0.05-0.07,0.11-0.13,0.17-0.19c0.03-0.03,0.06-0.06,0.09-0.09   c0.02-0.02,0.03-0.03,0.05-0.04c0.05-0.04,0.09-0.08,0.14-0.12c0.02-0.02,0.04-0.03,0.06-0.05c0.07-0.06,0.14-0.11,0.21-0.17   c0.01,0,0.01-0.01,0.02-0.01c0.02-0.01,0.03-0.03,0.05-0.05c0.09-0.09,0.15-0.19,0.2-0.3c0.02-0.04,0.03-0.07,0.05-0.11   c0-0.01,0.01-0.02,0.01-0.02c0.01-0.04,0.02-0.08,0.03-0.13c0-0.01,0-0.01,0-0.02c0,0,0,0,0,0c0.01-0.05,0.02-0.1,0.03-0.15   c0.01-0.03,0.01-0.05,0.02-0.07c0,0,0,0,0,0c0.02-0.04,0.04-0.08,0.08-0.1c0.03-0.02,0.06-0.04,0.09-0.07c0,0,0,0,0,0c0,0,0,0,0,0   c0.06-0.06,0.11-0.12,0.16-0.2c0.02-0.04,0.05-0.08,0.07-0.12c0.02-0.03,0.03-0.06,0.05-0.09c0.01-0.03,0.03-0.05,0.04-0.08   c0,0,0-0.01,0.01-0.01c0.02-0.03,0.03-0.06,0.05-0.09c0.03-0.05,0.06-0.09,0.09-0.13c0.01-0.01,0.02-0.03,0.03-0.04   c0.04-0.04,0.08-0.09,0.12-0.13c0.03-0.04,0.06-0.07,0.09-0.11c0.02-0.03,0.04-0.05,0.06-0.08c0.02-0.03,0.04-0.06,0.06-0.08   c0.03-0.05,0.07-0.1,0.1-0.15c0.04-0.06,0.08-0.13,0.12-0.19c0-0.01,0.01-0.01,0.01-0.02c0.02-0.04,0.04-0.08,0.06-0.12   c0.02-0.04,0.04-0.08,0.06-0.12c0.02-0.04,0.04-0.09,0.06-0.13c0.06-0.14,0.12-0.26,0.19-0.38c0.01-0.01,0.02-0.03,0.02-0.04   c0.01-0.02,0.02-0.03,0.03-0.05c0.02-0.03,0.04-0.06,0.06-0.09c0.01-0.02,0.03-0.04,0.04-0.06c0.01-0.01,0.01-0.02,0.02-0.03   c0.02-0.03,0.04-0.07,0.06-0.1c0,0,0-0.01,0-0.01c0.03-0.05,0.05-0.11,0.08-0.16c0.01-0.02,0.03-0.05,0.05-0.07c0,0,0,0,0,0   c0.04-0.05,0.08-0.09,0.12-0.14c0.01-0.02,0.02-0.03,0.03-0.05c0.02-0.03,0.03-0.07,0.02-0.11c0,0,0-0.01,0-0.01   c0-0.04-0.02-0.08-0.05-0.11c-0.01-0.02-0.03-0.04-0.05-0.06c-0.02-0.02-0.04-0.04-0.06-0.07c-0.02-0.02-0.04-0.04-0.05-0.07   c-0.03-0.04-0.06-0.08-0.1-0.11c-0.03-0.03-0.06-0.06-0.09-0.09c0,0,0,0,0,0c0,0,0,0,0,0c-0.04-0.04-0.09-0.08-0.14-0.12   c-0.1-0.08-0.2-0.16-0.31-0.23c-0.06-0.04-0.12-0.08-0.18-0.12c-0.09-0.05-0.18-0.1-0.28-0.15c0.02-0.01,0.04-0.01,0.06-0.02   c0.27-0.07,0.54-0.15,0.81-0.23c0.05-0.01,0.1-0.03,0.14-0.04c0.03-0.01,0.05-0.02,0.08-0.02c0.07-0.02,0.14-0.04,0.21-0.06   c0.13-0.04,0.26-0.09,0.4-0.13c0,0,0.01,0,0.01,0c0,0,0.01,0,0.01,0c0.06-0.02,0.13-0.04,0.19-0.07c0.14-0.05,0.29-0.11,0.43-0.17   c0.01,0,0.02-0.01,0.03-0.01c0.07-0.03,0.14-0.06,0.21-0.09c0.05-0.02,0.11-0.05,0.16-0.07c0.02-0.01,0.04-0.02,0.06-0.03   c0.11-0.05,0.22-0.1,0.34-0.15c0.07-0.03,0.14-0.06,0.2-0.09c0.08-0.03,0.15-0.07,0.23-0.1c0.29-0.12,0.58-0.24,0.86-0.36   c0.05-0.02,0.1-0.04,0.14-0.06c0.1-0.04,0.19-0.08,0.29-0.13c0.27-0.12,0.54-0.24,0.8-0.38c0.25-0.13,0.53-0.21,0.82-0.28   c0.18-0.05,0.35-0.09,0.52-0.14c0.04-0.01,0.08-0.02,0.12-0.03c0.02-0.01,0.05-0.02,0.07-0.02c0.02-0.01,0.04-0.01,0.06-0.02   c0.03-0.01,0.05-0.02,0.08-0.03c0.01,0,0.02-0.01,0.03-0.01c0.01,0,0.02-0.01,0.03-0.01c0.22-0.08,0.44-0.18,0.65-0.28   c0.1-0.04,0.19-0.09,0.29-0.13c0.22-0.1,0.44-0.21,0.66-0.32c0.01-0.01,0.03-0.01,0.04-0.02c0.13-0.06,0.27-0.11,0.41-0.15   c0.09-0.03,0.17-0.05,0.26-0.08c0.06-0.02,0.13-0.04,0.19-0.06c0.03-0.01,0.06-0.02,0.09-0.03c0.06-0.02,0.11-0.04,0.17-0.06   c0.1-0.04,0.19-0.08,0.29-0.12c0.07-0.03,0.14-0.06,0.21-0.09c0.05-0.02,0.11-0.05,0.16-0.07c0.04-0.02,0.08-0.04,0.12-0.05   c0.01,0,0.01-0.01,0.02-0.01c0.04-0.02,0.08-0.03,0.12-0.05c0.01-0.01,0.03-0.01,0.05-0.02c0.06-0.03,0.12-0.05,0.18-0.08   c0.18-0.08,0.37-0.17,0.55-0.23c0.01,0,0.02-0.01,0.03-0.01c0.05-0.02,0.1-0.03,0.16-0.05c0.12-0.03,0.23-0.06,0.35-0.09   c0.04-0.01,0.08-0.02,0.12-0.03c0,0,0,0,0,0c0.09-0.03,0.18-0.05,0.27-0.09c0.09-0.03,0.17-0.07,0.26-0.11   c0.07-0.04,0.14-0.07,0.21-0.1c0.08-0.04,0.17-0.08,0.25-0.11c0.06-0.02,0.11-0.05,0.17-0.07c0.22-0.09,0.44-0.16,0.66-0.24   c0.03-0.01,0.06-0.02,0.09-0.03c0.09-0.03,0.18-0.06,0.26-0.08c0.01,0,0.01,0,0.02-0.01c0.12-0.04,0.24-0.07,0.35-0.11   c0.24-0.07,0.48-0.15,0.72-0.22c0.04-0.01,0.08-0.02,0.12-0.04c0.15-0.05,0.31-0.1,0.46-0.16c0.05-0.02,0.11-0.04,0.16-0.06   c0.11-0.04,0.21-0.08,0.31-0.13c0,0,0,0,0,0c0.06-0.02,0.12-0.05,0.18-0.07c0.04-0.02,0.08-0.04,0.12-0.05c0,0,0.01,0,0.01,0   c0.1-0.04,0.2-0.08,0.3-0.12c0.08-0.03,0.16-0.05,0.24-0.08c0.01,0,0.02-0.01,0.03-0.01c0.06-0.02,0.12-0.03,0.18-0.05   c0.09-0.02,0.18-0.05,0.27-0.07c0.05-0.01,0.09-0.02,0.14-0.03c0.04-0.01,0.09-0.02,0.13-0.03c0.01,0,0.03-0.01,0.04-0.01   c0.13-0.03,0.26-0.06,0.38-0.09c0.12-0.03,0.24-0.06,0.36-0.1c0.01,0,0.01,0,0.02-0.01c0.04-0.01,0.07-0.02,0.11-0.03   c0.04-0.01,0.08-0.02,0.13-0.04c0.03-0.01,0.06-0.02,0.1-0.03c0.15-0.04,0.29-0.08,0.44-0.12c0.05-0.01,0.1-0.03,0.15-0.04   c0.11-0.03,0.22-0.06,0.33-0.08c0.19-0.05,0.39-0.09,0.58-0.13c0.04-0.01,0.08-0.02,0.11-0.02c0.01,0,0.01,0,0.02,0   c0.08-0.01,0.15-0.03,0.23-0.04c0.05-0.01,0.11-0.02,0.16-0.03c0.02,0,0.05-0.01,0.07-0.01c0.02,0,0.04-0.01,0.06-0.01   c0.1-0.02,0.2-0.05,0.3-0.07c0.07-0.01,0.14-0.02,0.21-0.03c0.15-0.01,0.26-0.01,0.37-0.06c0.04-0.02,0.08-0.04,0.12-0.06   c0,0,0,0,0,0c0.09-0.05,0.18-0.1,0.28-0.13c0.05-0.02,0.11-0.03,0.16-0.05c0.16-0.04,0.33-0.06,0.48-0.1   c0.07-0.01,0.14-0.03,0.21-0.05c0.03-0.01,0.05-0.01,0.08-0.02c0.01,0,0.02-0.01,0.03-0.01c0.04-0.01,0.08-0.03,0.12-0.04   c0.1-0.03,0.2-0.07,0.29-0.11c0,0,0.01,0,0.01,0c0.01,0,0.02-0.01,0.03-0.01c0.01-0.01,0.03-0.01,0.04-0.02   c0.04-0.02,0.09-0.04,0.13-0.05c0.01,0,0.02-0.01,0.03-0.01c0.04-0.02,0.08-0.03,0.13-0.05c0.06-0.02,0.12-0.05,0.18-0.07   c0.03-0.01,0.06-0.02,0.09-0.03c0.2-0.07,0.41-0.13,0.62-0.15c0.08-0.01,0.16-0.02,0.24-0.02c0.08,0,0.16,0,0.24,0   c0.01,0,0.03,0,0.04,0c0.19,0,0.39-0.01,0.58-0.05c0.04-0.01,0.09-0.02,0.13-0.03c0.11-0.03,0.21-0.09,0.31-0.14   c0.08-0.05,0.17-0.09,0.25-0.13c0.11-0.05,0.23-0.08,0.35-0.11c0.05-0.01,0.1-0.02,0.15-0.03c0.05-0.01,0.11-0.01,0.16-0.02   c0.17-0.02,0.34-0.02,0.49-0.03c0.02,0,0.03,0,0.05,0c0,0,0,0,0,0c0,0,0,0,0,0c0.16-0.02,0.31-0.07,0.46-0.11   c0.02-0.01,0.04-0.01,0.07-0.02c0.13-0.03,0.25-0.06,0.38-0.08c0.07-0.01,0.15-0.02,0.22-0.03c0.07-0.01,0.13-0.02,0.2-0.02   c0.17-0.02,0.33-0.03,0.5-0.05c0.02,0,0.03,0,0.05,0c0.05,0,0.1-0.01,0.15-0.02c0.02,0,0.05-0.01,0.07-0.01   c0.24-0.03,0.49-0.08,0.74-0.1c0.05,0,0.11-0.01,0.16-0.01c0,0,0,0,0,0c0.04,0,0.08,0,0.12,0c0.17,0,0.35,0.01,0.53,0   c0.06,0,0.12-0.01,0.17-0.02c0.03,0,0.06-0.01,0.09-0.01c0.19-0.03,0.38-0.07,0.58-0.1c0.1-0.02,0.2-0.03,0.31-0.05   c0.04-0.01,0.08-0.01,0.12-0.01c0.05,0,0.1-0.01,0.15-0.01c0.01,0,0.03,0,0.04,0c0.03,0,0.06,0,0.1-0.01   c0.14-0.01,0.29-0.02,0.43-0.04c0.04,0,0.07-0.01,0.11-0.01c0.05-0.01,0.09-0.01,0.14-0.01c0.15-0.02,0.29-0.03,0.44-0.03   c0.06,0,0.12,0,0.19,0c0.01,0,0.02,0,0.02,0c0.01,0,0.01,0,0.02,0c0.26,0.01,0.53,0.02,0.8,0.01c0.18,0,0.4-0.1,0.56-0.05   c0.02,0,0.02,0.06,0.06,0.07c0.06,0.02,0.16,0.01,0.23,0.01c0.11,0,0.22,0,0.33,0c0.04,0,0.08,0,0.11-0.01   c0.06-0.01,0.11-0.01,0.16-0.02c0.05-0.01,0.1-0.01,0.14-0.01c0.03,0,0.06,0,0.09,0c0,0,0.01,0,0.01,0c0,0,0.01,0,0.02,0   c0.02,0,0.04,0,0.06,0c0.06,0,0.14,0,0.21,0.01c0.09,0.01,0.17,0.02,0.24,0.04c0,0,0.01,0,0.01,0c0.03,0.01,0.05,0.04,0.07,0.06   c0.01,0.02,0.03,0.03,0.05,0.04c0.02,0.01,0.04,0.02,0.06,0.02c0.04,0.01,0.09,0.01,0.14,0c0.06-0.01,0.12-0.02,0.17-0.03   c0.02,0,0.04-0.01,0.06-0.01c0.14-0.02,0.34-0.04,0.49,0c0.02,0.01,0.05,0.01,0.07,0.03c0.03,0.01,0.05,0.03,0.07,0.04   c0.07,0.05,0.1,0.11,0.23,0.11c0.32,0.01,0.61-0.09,0.91-0.19c0.06-0.02,0.12-0.04,0.18-0.06c0.06-0.02,0.13-0.04,0.19-0.05   c0.14-0.03,0.28-0.06,0.42-0.06c0.11,0,0.22,0,0.34,0c0.08,0,0.15,0,0.23,0c0.04,0,0.09,0,0.15,0.01c0.04,0,0.08,0.01,0.12,0.01   c0.11,0.01,0.22,0.01,0.27-0.01C86.96,191.46,86.96,191.42,86.95,191.38z"
   id="path17" />
	<path
   class="st1"
   d="M60.49,203.43c-0.01-0.01-0.02-0.01-0.02-0.01c-0.07-0.05-0.14-0.08-0.22-0.11c-0.06-0.02-0.12-0.04-0.18-0.06   c-0.01,0-0.02-0.01-0.04-0.01c-0.06-0.02-0.11-0.03-0.17-0.05c-0.02-0.01-0.04-0.01-0.06-0.02c-0.05-0.02-0.09-0.04-0.13-0.05   c-0.04-0.02-0.09-0.04-0.12-0.05c-0.03-0.01-0.06-0.03-0.08-0.04c-0.12-0.06-0.22-0.13-0.32-0.23c-0.05-0.05-0.09-0.1-0.15-0.16   c0,0,0,0,0,0c-0.01-0.02-0.03-0.03-0.04-0.05c-0.06-0.07-0.12-0.16-0.19-0.23c0,0,0,0,0-0.01c-0.04-0.04-0.08-0.08-0.12-0.12   c-0.01-0.01-0.02-0.01-0.02-0.02c0,0,0,0-0.01,0c-0.02-0.01-0.03-0.02-0.05-0.03c-0.15-0.09-0.34-0.15-0.5-0.24   c-0.02-0.01-0.04-0.02-0.06-0.03c-0.07-0.04-0.13-0.08-0.19-0.12c-0.01,0-0.01-0.01-0.02-0.01c-0.07-0.04-0.13-0.08-0.2-0.12   c-0.03-0.02-0.06-0.04-0.1-0.06c-0.04-0.02-0.07-0.05-0.11-0.07c-0.03-0.02-0.06-0.04-0.09-0.06c-0.01,0-0.01-0.01-0.02-0.01   c-0.02-0.01-0.04-0.02-0.06-0.03c-0.12-0.06-0.24-0.08-0.36-0.12c-0.07-0.02-0.13-0.03-0.2-0.06c-0.02-0.01-0.04-0.02-0.06-0.03   c-0.01-0.01-0.03-0.02-0.04-0.02c-0.02-0.02-0.05-0.03-0.07-0.05c-0.06-0.05-0.13-0.1-0.19-0.15c-0.06-0.04-0.13-0.07-0.21-0.09   c-0.1-0.03-0.21-0.05-0.31-0.09c-0.09-0.04-0.18-0.08-0.22-0.17c-0.09,0.04-0.17,0.11-0.24,0.2c-0.08,0.1-0.14,0.22-0.19,0.35   c-0.1,0.24-0.16,0.51-0.23,0.73c-0.02,0.08-0.05,0.15-0.08,0.22c0,0,0,0.01,0,0.01c-0.03,0.06-0.06,0.13-0.08,0.19   c-0.02,0.06-0.05,0.11-0.07,0.17c-0.01,0.03-0.03,0.06-0.04,0.09c-0.02,0.04-0.04,0.08-0.06,0.11c-0.01,0.03-0.03,0.06-0.04,0.08   c-0.01,0.01-0.01,0.02-0.02,0.03c-0.01,0.01-0.01,0.02-0.02,0.03c-0.03,0.06-0.07,0.13-0.1,0.19c-0.01,0.02-0.02,0.04-0.03,0.06   c-0.01,0.02-0.03,0.05-0.04,0.07c-0.02,0.04-0.05,0.07-0.07,0.11c0,0-0.01,0.01-0.01,0.01c-0.04,0.07-0.08,0.13-0.13,0.2   c-0.05,0.08-0.08,0.15-0.1,0.21c-0.01,0.04-0.03,0.08-0.05,0.13c0,0,0,0.01-0.01,0.01c-0.01,0.02-0.02,0.04-0.04,0.07   c-0.04,0.06-0.08,0.12-0.12,0.18c-0.02,0.02-0.03,0.05-0.05,0.07c-0.02,0.02-0.03,0.05-0.05,0.07c-0.02,0.02-0.03,0.05-0.05,0.07   c-0.01,0.01-0.02,0.03-0.02,0.04c-0.02,0.03-0.03,0.06-0.05,0.09c-0.02,0.03-0.03,0.06-0.04,0.09c-0.01,0.03-0.02,0.06-0.04,0.09   c-0.02,0.06-0.04,0.11-0.06,0.17c-0.01,0.03-0.02,0.05-0.03,0.08c-0.02,0.04-0.03,0.08-0.05,0.12c-0.01,0.02-0.02,0.04-0.03,0.05   c0,0.01-0.01,0.02-0.01,0.03c-0.07,0.14-0.14,0.26-0.2,0.39c0,0.01-0.01,0.02-0.01,0.03c-0.01,0.03-0.02,0.05-0.03,0.08   c-0.02,0.05-0.03,0.09-0.04,0.14c-0.01,0.07-0.03,0.13-0.06,0.19c-0.03,0.07-0.06,0.14-0.09,0.2c-0.02,0.04-0.04,0.08-0.07,0.13   c0,0.01-0.01,0.01-0.01,0.02c-0.01,0.02-0.02,0.04-0.04,0.06c-0.01,0.03-0.03,0.05-0.05,0.08c0,0.01-0.01,0.01-0.01,0.02   c-0.01,0.03-0.03,0.05-0.04,0.08c0,0,0,0,0,0c0,0.01-0.01,0.01-0.01,0.01c-0.01,0.02-0.03,0.05-0.04,0.07c0,0,0,0,0,0   c-0.01,0.03-0.03,0.05-0.04,0.08c-0.09,0.16-0.17,0.31-0.25,0.47c0,0,0,0,0,0.01c-0.01,0.02-0.03,0.05-0.04,0.08   c-0.01,0.02-0.02,0.04-0.03,0.07c-0.04,0.09-0.09,0.19-0.13,0.29c-0.03,0.07-0.07,0.13-0.1,0.19c-0.05,0.09-0.1,0.16-0.16,0.22   c-0.01,0.01-0.01,0.01-0.02,0.02c-0.03,0.03-0.06,0.06-0.08,0.09c-0.02,0.02-0.03,0.04-0.04,0.06c0,0.01-0.01,0.01-0.01,0.02   c-0.03,0.05-0.06,0.1-0.08,0.15c-0.02,0.03-0.03,0.07-0.04,0.1c-0.01,0.02-0.01,0.03-0.02,0.05c0,0.01-0.01,0.02-0.01,0.02   c-0.07,0.17-0.12,0.34-0.21,0.49c0,0,0,0.01-0.01,0.01c0,0,0,0,0,0c-0.01,0.03-0.03,0.05-0.05,0.07c-0.03,0.05-0.07,0.11-0.1,0.16   c-0.03,0.04-0.06,0.08-0.09,0.12c-0.01,0.01-0.02,0.02-0.03,0.03c-0.05,0.07-0.11,0.14-0.16,0.22c-0.04,0.06-0.09,0.12-0.13,0.18   c-0.03,0.04-0.05,0.07-0.08,0.11c-0.01,0.01-0.01,0.02-0.02,0.03c0,0.01-0.01,0.01-0.01,0.02c-0.03,0.05-0.06,0.1-0.09,0.14   c-0.03,0.04-0.05,0.08-0.08,0.13c-0.03,0.06-0.07,0.11-0.1,0.17c0,0,0,0,0,0c-0.03,0.04-0.05,0.09-0.08,0.13   c-0.06,0.1-0.11,0.19-0.17,0.29c-0.01,0.02-0.03,0.05-0.04,0.07c-0.03,0.07-0.05,0.13-0.06,0.2c-0.01,0.08-0.01,0.15-0.02,0.23   c0,0.05-0.01,0.09-0.01,0.14c0,0.03-0.01,0.06-0.02,0.09c0,0.02-0.01,0.04-0.01,0.05c-0.01,0.03-0.02,0.06-0.03,0.08   c-0.03,0.06-0.06,0.12-0.11,0.17c-0.02,0.02-0.04,0.04-0.06,0.06c-0.06,0.06-0.13,0.12-0.2,0.18c-0.02,0.02-0.04,0.04-0.06,0.06   c-0.02,0.02-0.04,0.05-0.06,0.07c-0.03,0.04-0.06,0.08-0.08,0.13c-0.03,0.05-0.05,0.1-0.07,0.15c-0.01,0.02-0.02,0.05-0.03,0.07   c-0.04,0.12-0.06,0.25-0.06,0.38c0,0.06,0,0.12,0,0.17c0,0.1-0.02,0.19-0.05,0.28c-0.02,0.04-0.04,0.09-0.07,0.14c0,0,0,0,0,0   c-0.01,0.02-0.03,0.04-0.04,0.06c-0.04,0.05-0.08,0.1-0.12,0.15c-0.01,0.02-0.03,0.03-0.04,0.05c-0.02,0.03-0.05,0.05-0.07,0.08   c-0.04,0.04-0.08,0.09-0.12,0.13c-0.01,0.01-0.02,0.02-0.02,0.03c0,0,0,0-0.01,0.01c-0.02,0.02-0.04,0.05-0.07,0.07   c-0.01,0.01-0.02,0.02-0.03,0.03c-0.02,0.03-0.05,0.05-0.07,0.08c-0.02,0.02-0.04,0.04-0.06,0.07c-0.02,0.02-0.03,0.04-0.05,0.06   c-0.04,0.06-0.08,0.12-0.12,0.19c-0.02,0.04-0.04,0.08-0.06,0.12c-0.01,0.03-0.02,0.05-0.04,0.08c-0.02,0.03-0.03,0.07-0.04,0.1   c-0.02,0.05-0.04,0.09-0.06,0.14c-0.04,0.11-0.07,0.2-0.1,0.3c0,0.01-0.01,0.02-0.01,0.04c0,0,0,0,0,0   c-0.01,0.04-0.02,0.08-0.04,0.12c-0.01,0.03-0.02,0.05-0.03,0.08c-0.05,0.14-0.1,0.29-0.14,0.43c-0.01,0.02-0.01,0.03-0.02,0.05   c-0.03,0.09-0.06,0.18-0.08,0.28c-0.02,0.08-0.05,0.15-0.07,0.23c0,0.01-0.01,0.02-0.01,0.03c-0.01,0.02-0.01,0.04-0.02,0.06   c-0.01,0.03-0.02,0.05-0.02,0.08c-0.01,0.02-0.02,0.05-0.02,0.07c0,0.01-0.01,0.02-0.01,0.03c-0.03,0.08-0.06,0.16-0.09,0.24   c-0.02,0.06-0.05,0.12-0.07,0.18c-0.02,0.03-0.03,0.07-0.05,0.1c-0.01,0.03-0.03,0.06-0.05,0.09c-0.01,0.03-0.03,0.05-0.04,0.08   c-0.03,0.05-0.05,0.09-0.08,0.14c-0.02,0.03-0.04,0.06-0.05,0.09c-0.03,0.05-0.06,0.1-0.08,0.15c-0.04,0.08-0.07,0.15-0.1,0.23   c-0.01,0.02-0.02,0.04-0.02,0.06c-0.01,0.03-0.02,0.06-0.04,0.08c-0.04,0.09-0.08,0.19-0.12,0.28c-0.01,0.03-0.02,0.05-0.03,0.08   c-0.01,0.02-0.02,0.04-0.03,0.06c-0.02,0.04-0.03,0.07-0.05,0.11c0,0,0,0.01-0.01,0.01c-0.09,0.17-0.18,0.35-0.27,0.53   c-0.01,0.03-0.03,0.05-0.04,0.08c-0.02,0.03-0.03,0.06-0.05,0.09c-0.12,0.23-0.24,0.45-0.36,0.68c-0.02,0.03-0.03,0.06-0.05,0.09   c-0.02,0.03-0.03,0.06-0.05,0.09c-0.01,0.02-0.02,0.03-0.03,0.05c-0.04,0.07-0.07,0.14-0.1,0.21c-0.03,0.07-0.07,0.14-0.1,0.21   c-0.01,0.02-0.01,0.03-0.02,0.05c0,0.01-0.01,0.02-0.01,0.03c-0.05,0.11-0.11,0.22-0.17,0.33c-0.09,0.16-0.19,0.32-0.28,0.49   c-0.01,0.02-0.02,0.03-0.03,0.05c-0.01,0.02-0.02,0.03-0.02,0.05c-0.03,0.07-0.06,0.13-0.09,0.2c0,0.01-0.01,0.02-0.01,0.03   c-0.04,0.09-0.08,0.18-0.12,0.27c-0.03,0.06-0.07,0.13-0.12,0.19c0,0,0,0.01-0.01,0.01c-0.01,0.02-0.03,0.04-0.04,0.06   c-0.02,0.04-0.04,0.07-0.06,0.11c-0.01,0.01-0.01,0.03-0.02,0.04c-0.01,0.02-0.02,0.05-0.04,0.08c-0.01,0.02-0.01,0.03-0.02,0.05   c-0.01,0.02-0.02,0.05-0.03,0.07c-0.02,0.05-0.04,0.1-0.05,0.14c-0.01,0.02-0.01,0.03-0.02,0.05c-0.04,0.11-0.08,0.22-0.12,0.33   c-0.01,0.04-0.03,0.07-0.04,0.1c0,0.04-0.01,0.07-0.04,0.09c-0.02,0.05-0.05,0.1-0.08,0.15c0,0.01-0.01,0.01-0.01,0.02   c0,0,0,0.01,0,0.01c-0.02,0.03-0.04,0.06-0.06,0.1c-0.03,0.06-0.07,0.11-0.1,0.17c-0.03,0.06-0.06,0.11-0.09,0.17c0,0,0,0,0,0   c-0.02,0.04-0.04,0.07-0.06,0.11c-0.04,0.08-0.08,0.15-0.12,0.23c-0.02,0.04-0.04,0.07-0.06,0.11c-0.03,0.05-0.05,0.1-0.08,0.15   c-0.01,0.02-0.02,0.05-0.04,0.07c-0.01,0.03-0.03,0.05-0.04,0.08c-0.06,0.11-0.11,0.22-0.17,0.33c-0.01,0.02-0.02,0.04-0.03,0.06   c-0.01,0.03-0.03,0.05-0.04,0.08c-0.02,0.04-0.04,0.08-0.06,0.12c-0.04,0.07-0.07,0.13-0.11,0.2c-0.02,0.03-0.03,0.06-0.05,0.08   c0,0.01-0.01,0.01-0.01,0.02c-0.08,0.15-0.17,0.29-0.25,0.43c-0.01,0.02-0.02,0.04-0.03,0.06c0,0,0,0,0,0.01   c-0.01,0.02-0.02,0.04-0.03,0.05c-0.06,0.1-0.11,0.21-0.17,0.31c-0.02,0.04-0.04,0.07-0.06,0.11c-0.02,0.03-0.03,0.06-0.05,0.09   c-0.03,0.05-0.05,0.1-0.07,0.16c-0.02,0.05-0.05,0.1-0.07,0.16c-0.02,0.05-0.04,0.1-0.07,0.16c-0.05,0.11-0.09,0.23-0.13,0.35   c-0.03,0.08-0.05,0.17-0.08,0.25c0,0.01,0,0.01-0.01,0.02c-0.02,0.08-0.04,0.16-0.07,0.23c0,0,0,0,0,0   c-0.01,0.04-0.03,0.08-0.04,0.12c-0.01,0.02-0.01,0.04-0.02,0.06c-0.01,0.04-0.02,0.07-0.03,0.11c-0.02,0.07-0.05,0.14-0.07,0.21   c0,0.01-0.01,0.03-0.01,0.04c-0.01,0.03-0.02,0.06-0.03,0.09c-0.03,0.07-0.05,0.14-0.08,0.22c-0.01,0.03-0.02,0.07-0.03,0.1   c-0.01,0.04-0.03,0.07-0.04,0.11c-0.01,0.03-0.02,0.05-0.03,0.08c-0.01,0.02-0.01,0.04-0.02,0.06c-0.02,0.06-0.04,0.12-0.06,0.18   c0,0.01-0.01,0.02-0.01,0.03c-0.01,0.02-0.01,0.04-0.02,0.06c-0.04,0.13-0.09,0.27-0.12,0.41c0,0.02-0.01,0.04-0.02,0.05   c0,0.02-0.01,0.03-0.01,0.05c-0.01,0.04-0.02,0.07-0.03,0.11c-0.01,0.03-0.02,0.06-0.02,0.09c-0.01,0.05-0.02,0.09-0.04,0.14   c-0.01,0.03-0.02,0.07-0.03,0.1c0,0,0,0,0,0c0,0,0,0,0,0c-0.01,0.05-0.03,0.11-0.04,0.16c0,0.02-0.01,0.04-0.01,0.06   c-0.01,0.05-0.02,0.1-0.03,0.14c-0.02,0.07-0.03,0.14-0.04,0.21c0,0.02-0.01,0.04-0.01,0.06c-0.01,0.07-0.02,0.14-0.03,0.21   c0,0.03-0.01,0.07-0.01,0.11c0,0.05-0.01,0.1-0.01,0.14c0,0.07-0.01,0.14-0.01,0.21c0,0.25,0.02,0.55,0.15,0.76   c0.01,0.01,0.02,0.03,0.03,0.04c0.03,0.05,0.07,0.08,0.11,0.11c0.02,0.01,0.04,0.03,0.06,0.04c0.06,0.03,0.12,0.05,0.19,0.06   c0.2,0.05,0.43,0.05,0.61,0.15c0.05,0.03,0.09,0.06,0.13,0.1c0.03,0.03,0.06,0.06,0.09,0.08c0.08,0.06,0.16,0.11,0.25,0.15   c0.09,0.04,0.19,0.08,0.29,0.11c0.06,0.02,0.12,0.04,0.18,0.06c0.03,0.01,0.06,0.02,0.09,0.04c0,0,0.01,0,0.01,0   c0.05,0.02,0.1,0.04,0.15,0.07c0.01,0.01,0.03,0.01,0.04,0.02c0.04,0.02,0.08,0.03,0.13,0.05c0.02,0,0.03,0.01,0.05,0.01   c0.05,0.02,0.11,0.03,0.16,0.04c0.11,0.03,0.21,0.05,0.31,0.08c0,0,0,0,0.01,0c0.03,0.01,0.07,0.03,0.1,0.05   c0.05,0.03,0.1,0.07,0.15,0.1c0.03,0.02,0.06,0.03,0.09,0.05c0.03,0.01,0.06,0.02,0.09,0.03c0.05,0.01,0.09,0.02,0.14,0.03   c0.04,0.01,0.07,0.02,0.11,0.03c0.06,0.02,0.12,0.05,0.18,0.08c0.05,0.03,0.1,0.05,0.16,0.07c0.01,0,0.02,0.01,0.03,0.01   c0.05,0.02,0.1,0.03,0.16,0.04c0.02,0,0.05,0,0.07,0c0.01,0,0.01,0,0.02,0c0.04,0,0.08-0.01,0.13-0.01   c0.04-0.01,0.08-0.02,0.12-0.03c0.04-0.01,0.08-0.03,0.12-0.05c0.05-0.03,0.09-0.06,0.11-0.1c0.04-0.08,0.04-0.21,0.05-0.33   c0-0.02,0-0.04,0-0.05c0,0,0,0,0,0c0-0.04,0.01-0.08,0.01-0.12c0-0.01,0-0.02,0-0.03c0,0,0,0,0,0c0.01-0.04,0.01-0.07,0.02-0.11   c0.01-0.07,0.03-0.13,0.04-0.2c0.01-0.04,0.02-0.07,0.03-0.11c0.01-0.02,0.02-0.05,0.03-0.07c0.01-0.02,0.01-0.03,0.02-0.05   c0-0.01,0-0.01,0.01-0.02c0.01-0.03,0.02-0.06,0.03-0.08c0.02-0.05,0.05-0.11,0.07-0.16c0.04-0.08,0.08-0.17,0.12-0.25   c0.04-0.07,0.08-0.15,0.12-0.22c0.02-0.03,0.04-0.07,0.06-0.1c0.06-0.09,0.11-0.19,0.16-0.29c0.02-0.04,0.04-0.07,0.05-0.11   c0.05-0.11,0.1-0.23,0.15-0.35c0.02-0.06,0.05-0.12,0.07-0.17c0.01-0.02,0.01-0.04,0.02-0.05c0.01-0.03,0.02-0.06,0.03-0.09   c0.02-0.07,0.05-0.14,0.07-0.21c0.01-0.03,0.02-0.07,0.03-0.1c0,0,0-0.01,0-0.01c0.01-0.04,0.03-0.09,0.04-0.13   c0.02-0.05,0.03-0.1,0.04-0.16c0-0.01,0.01-0.03,0.01-0.04c0.02-0.07,0.04-0.14,0.05-0.21c0-0.01,0-0.01,0-0.02   c0.02-0.07,0.03-0.14,0.05-0.21c0,0,0-0.01,0-0.01c0.01-0.04,0.02-0.09,0.03-0.13c0.01-0.03,0.01-0.06,0.02-0.09   c0.05-0.22,0.12-0.43,0.2-0.63c0.01-0.02,0.02-0.04,0.02-0.06c0.02-0.06,0.05-0.11,0.07-0.17c0.02-0.05,0.05-0.11,0.07-0.16   c0.02-0.05,0.05-0.1,0.07-0.15c0.02-0.04,0.04-0.08,0.05-0.11c0.01-0.02,0.02-0.05,0.03-0.07c0.1-0.21,0.21-0.42,0.31-0.63   c0.04-0.08,0.07-0.17,0.11-0.25c0,0,0,0,0,0c0.02-0.04,0.03-0.08,0.05-0.12c0.01-0.02,0.02-0.05,0.03-0.07c0-0.01,0-0.01,0.01-0.02   c0.02-0.04,0.03-0.08,0.05-0.13c0.02-0.04,0.03-0.09,0.05-0.13c0.07-0.16,0.25-0.26,0.24-0.45c0.07-0.05,0.13-0.12,0.17-0.19   c0.02-0.03,0.04-0.06,0.05-0.09c0.02-0.03,0.03-0.07,0.04-0.1c0.01-0.02,0.01-0.04,0.02-0.06c0.01-0.03,0.02-0.07,0.03-0.1   c0.03-0.11,0.06-0.22,0.1-0.33c0-0.01,0-0.01,0.01-0.02c0.03-0.07,0.06-0.13,0.09-0.19c0.04-0.07,0.08-0.13,0.12-0.19   c0.01-0.02,0.02-0.03,0.04-0.05c0.01-0.02,0.03-0.03,0.04-0.05c0.06-0.08,0.13-0.15,0.19-0.23c0.05-0.05,0.09-0.1,0.14-0.16   c0.03-0.03,0.05-0.06,0.08-0.09c0,0,0,0,0,0c0.02-0.03,0.05-0.05,0.07-0.08c0.04-0.05,0.09-0.1,0.13-0.15   c0.02-0.02,0.03-0.03,0.05-0.05c0.07-0.08,0.14-0.16,0.21-0.24c0.02-0.02,0.03-0.04,0.05-0.06c0,0,0,0,0,0   c0.05-0.06,0.11-0.12,0.16-0.19c0.02-0.02,0.04-0.05,0.06-0.07c0.02-0.03,0.04-0.05,0.07-0.08c0.02-0.02,0.04-0.05,0.06-0.07   c0.1-0.12,0.2-0.24,0.3-0.37c0.01-0.01,0.01-0.02,0.02-0.03c0,0,0,0,0,0c0.14-0.17,0.27-0.35,0.39-0.53   c0.02-0.03,0.04-0.05,0.06-0.08c0.02-0.02,0.03-0.05,0.05-0.08c0.04-0.06,0.08-0.12,0.12-0.19c0.24-0.36,0.45-0.74,0.63-1.14   c0.06-0.14,0.12-0.28,0.18-0.42c0.02-0.04,0.04-0.08,0.05-0.13c0.02-0.04,0.04-0.09,0.05-0.13c0-0.01,0.01-0.01,0.01-0.02   c0.02-0.06,0.05-0.11,0.07-0.17c0.03-0.07,0.06-0.14,0.09-0.2c0.02-0.05,0.05-0.11,0.07-0.16c0.02-0.04,0.03-0.07,0.05-0.11   c0-0.01,0.01-0.02,0.01-0.03c0.01-0.02,0.01-0.03,0.02-0.05c0.01-0.03,0.02-0.05,0.04-0.08c0.04-0.08,0.07-0.16,0.11-0.24   c0.01-0.02,0.02-0.03,0.02-0.05c0.01-0.03,0.02-0.05,0.04-0.08c0.01-0.02,0.02-0.04,0.03-0.07c0.02-0.04,0.04-0.08,0.06-0.13   c0,0,0-0.01,0-0.01c0.03-0.06,0.06-0.12,0.09-0.18c0,0,0,0,0,0c0.07-0.15,0.14-0.31,0.22-0.46c0.02-0.04,0.04-0.07,0.05-0.11   c0.03-0.06,0.06-0.12,0.08-0.18c0.03-0.06,0.05-0.11,0.08-0.17c0-0.01,0.01-0.01,0.01-0.02c0.09-0.18,0.18-0.36,0.26-0.54   c0.01-0.02,0.02-0.04,0.03-0.05c0-0.01,0.01-0.02,0.01-0.03c0.05-0.11,0.11-0.22,0.17-0.33c0-0.01,0.01-0.02,0.01-0.03   c0-0.01,0.01-0.02,0.01-0.02c0.04-0.08,0.08-0.16,0.12-0.24c0.09-0.18,0.19-0.36,0.29-0.54c0.02-0.04,0.05-0.08,0.07-0.13   c0.04-0.07,0.08-0.15,0.12-0.22c0-0.01,0.01-0.01,0.01-0.02c0-0.01,0.01-0.01,0.01-0.02c0.02-0.03,0.03-0.06,0.04-0.08   c0.03-0.05,0.05-0.11,0.07-0.17c-0.01-0.01,0-0.02,0.01-0.03c0.01-0.02,0.01-0.04,0.02-0.06c0.02-0.07,0.04-0.13,0.05-0.2   c0.01-0.03,0.01-0.05,0.02-0.08c0.01-0.04,0.02-0.07,0.02-0.11c0.01-0.04,0.02-0.09,0.03-0.13c0-0.02,0.01-0.04,0.02-0.06   c0.01-0.03,0.02-0.07,0.03-0.1c0.01-0.03,0.02-0.06,0.03-0.09c0.01-0.03,0.02-0.06,0.04-0.09c0.01-0.01,0.01-0.03,0.02-0.04   c0,0,0,0,0,0c0.01-0.01,0.01-0.02,0.02-0.03c0.06-0.11,0.15-0.19,0.26-0.27c0.06-0.05,0.13-0.09,0.19-0.14   c0.01-0.01,0.02-0.02,0.04-0.03c0,0,0.01-0.01,0.01-0.01c0.01-0.01,0.02-0.01,0.03-0.02c0.03-0.03,0.07-0.05,0.1-0.08   c0.04-0.04,0.08-0.09,0.12-0.14c0,0,0.01-0.01,0.01-0.01c0.05-0.07,0.1-0.15,0.14-0.23c0,0,0,0,0,0c0,0,0,0,0,0   c0.06-0.1,0.12-0.21,0.18-0.31c0-0.01,0.01-0.02,0.01-0.02c0.03-0.05,0.06-0.11,0.09-0.16c0,0,0-0.01,0.01-0.01   c0.01-0.03,0.03-0.05,0.04-0.08c0,0,0,0,0-0.01c0.01-0.02,0.03-0.04,0.04-0.07c0.02-0.04,0.04-0.07,0.06-0.1   c0.02-0.03,0.03-0.06,0.05-0.08c0-0.01,0.01-0.01,0.01-0.01c0.1-0.16,0.18-0.26,0.24-0.43c0.03-0.07,0.05-0.14,0.07-0.2   c0,0,0-0.01,0-0.01c0.01-0.04,0.02-0.07,0.04-0.1c0.01-0.04,0.03-0.08,0.05-0.12c0.04-0.08,0.09-0.17,0.16-0.27   c0.01-0.01,0.01-0.01,0.02-0.02c0.03-0.04,0.06-0.08,0.09-0.12c0.02-0.03,0.04-0.06,0.07-0.08c0,0,0.01-0.01,0.01-0.01   c0.02-0.03,0.05-0.06,0.07-0.09c0.02-0.03,0.04-0.06,0.07-0.08c0.03-0.04,0.06-0.07,0.08-0.11c0.02-0.03,0.04-0.06,0.06-0.08   c0.01-0.01,0.01-0.02,0.02-0.03c0-0.01,0.01-0.01,0.01-0.02c0.03-0.04,0.06-0.09,0.08-0.13c0,0,0.01-0.01,0.01-0.01   c0.03-0.05,0.06-0.1,0.08-0.16c0-0.01,0.01-0.02,0.01-0.02c0.01-0.03,0.03-0.05,0.04-0.08c0.01-0.02,0.02-0.05,0.03-0.07   c0.02-0.04,0.04-0.09,0.06-0.13c0.03-0.06,0.06-0.12,0.08-0.18c0,0,0,0,0-0.01c0.04-0.07,0.08-0.15,0.12-0.22   c0.03-0.05,0.06-0.09,0.09-0.13c0.06-0.07,0.1-0.15,0.13-0.22c0-0.01,0.01-0.02,0.01-0.02c0.03-0.08,0.07-0.16,0.11-0.24   c0.01-0.02,0.02-0.03,0.02-0.05c0.03-0.06,0.06-0.11,0.09-0.17c0.01-0.02,0.02-0.03,0.03-0.05c0.01-0.01,0.02-0.03,0.03-0.04   c0-0.01,0.01-0.02,0.01-0.02c0.04-0.06,0.07-0.12,0.11-0.17c0-0.01,0.01-0.01,0.01-0.02c0.03-0.04,0.05-0.08,0.08-0.11   c0.04-0.06,0.09-0.13,0.13-0.19c0,0,0,0,0,0c0.06-0.1,0.12-0.21,0.18-0.31c0.04-0.07,0.08-0.15,0.11-0.22   c0.06-0.12,0.12-0.25,0.18-0.37c0.04-0.09,0.08-0.18,0.12-0.27c0.03-0.07,0.06-0.14,0.09-0.2c0-0.01,0-0.01,0.01-0.02   c0.05-0.12,0.09-0.25,0.13-0.38c0.01-0.02,0.01-0.04,0.02-0.06c0.02-0.06,0.04-0.12,0.06-0.18c0.01-0.03,0.02-0.06,0.03-0.09   c0,0,0,0,0-0.01c0.01-0.04,0.03-0.09,0.04-0.13c0.01-0.04,0.02-0.07,0.03-0.11c0.02-0.06,0.04-0.12,0.06-0.17   c0.02-0.06,0.04-0.11,0.06-0.17c0.05-0.14,0.1-0.28,0.15-0.42c0.01-0.02,0.01-0.03,0.02-0.05c0.02-0.05,0.03-0.09,0.05-0.14   c0.01-0.03,0.02-0.05,0.03-0.08c0.03-0.09,0.06-0.18,0.09-0.27c0.03-0.09,0.06-0.19,0.09-0.28c0.03-0.1,0.06-0.2,0.1-0.31   c0.02-0.05,0.03-0.1,0.05-0.16c0-0.01,0.01-0.02,0.01-0.04c0.02-0.09,0.04-0.17,0.06-0.26c0,0,0-0.01,0-0.01   c0-0.03,0.01-0.07,0.01-0.1c0-0.05,0.01-0.09,0.01-0.14c0-0.07-0.01-0.15-0.02-0.22C60.62,203.58,60.57,203.49,60.49,203.43z"
   id="path19" />
</g>
<g
   id="g39">
	<path
   class="st2"
   d="M111.9,196.91l-2.65,6.25h-4.87l12.23-27.71h4.79l12.11,27.71h-4.99l-2.65-6.25H111.9z M118.87,180.44   l-5.22,12.31h10.45L118.87,180.44z"
   id="path23" />
	<path
   class="st2"
   d="M156.47,175.46c8.31,0,14.33,5.82,14.33,13.85c0,7.99-6.06,13.85-14.45,13.85h-11.24v-27.71H156.47z    M149.78,198.97h6.81c5.38,0,9.5-4,9.5-9.62c0-5.66-4.23-9.7-9.7-9.7h-6.61V198.97z"
   id="path25" />
	<path
   class="st2"
   d="M190.82,203.16l-11.04-27.71h5.03l8.55,22.52l8.63-22.52h4.87l-11.2,27.71H190.82z"
   id="path27" />
	<path
   class="st2"
   d="M245.43,189.31c0,7.92-6.41,14.05-14.68,14.05c-8.27,0-14.68-6.13-14.68-14.05c0-7.96,6.41-13.97,14.68-13.97   C239.02,175.34,245.43,181.39,245.43,189.31z M220.81,189.31c0,5.5,4.55,9.86,9.97,9.86s9.86-4.35,9.86-9.86   c0-5.5-4.43-9.78-9.86-9.78C225.32,179.53,220.81,183.81,220.81,189.31z"
   id="path29" />
	<path
   class="st2"
   d="M280.02,179.61l-2.73,3.4c-2.02-2.18-4.91-3.52-7.72-3.52c-5.54,0-9.9,4.27-9.9,9.74s4.35,9.78,9.9,9.78   c2.77,0,5.62-1.27,7.72-3.28l2.77,3.09c-2.81,2.77-6.81,4.55-10.73,4.55c-8.11,0-14.41-6.13-14.41-14.09   c0-7.88,6.37-13.93,14.57-13.93C273.41,175.34,277.32,176.96,280.02,179.61z"
   id="path31" />
	<path
   class="st2"
   d="M296.44,196.91l-2.65,6.25h-4.87l12.23-27.71h4.79l12.11,27.71h-4.99l-2.65-6.25H296.44z M303.4,180.44   l-5.22,12.31h10.45L303.4,180.44z"
   id="path33" />
	<path
   class="st2"
   d="M337.04,179.65v23.51h-4.67v-23.51h-8.75v-4.2h22.2v4.2H337.04z"
   id="path35" />
	<path
   class="st2"
   d="M362.41,179.65v7.48h13.54v4.2h-13.54v7.64H378v4.2h-20.26v-27.71h19.79v4.2H362.41z"
   id="path37" />
</g>
<g
   id="g91">
	<g
   id="g89">
		<path
   class="st2"
   d="M125.67,214.25v9.58h-0.7v-4.56h-6.41v4.56h-0.7v-9.58h0.7v4.41h6.41v-4.41H125.67z"
   id="path41" />
		<path
   class="st2"
   d="M129.12,219.05c0-2.78,2.12-4.86,4.98-4.86c2.85,0,4.98,2.07,4.98,4.86c0,2.79-2.14,4.86-4.98,4.86    C131.24,223.91,129.12,221.83,129.12,219.05z M138.37,219.05c0-2.42-1.83-4.22-4.27-4.22c-2.45,0-4.28,1.79-4.28,4.22    c0,2.42,1.83,4.22,4.28,4.22C136.54,223.26,138.37,221.47,138.37,219.05z"
   id="path43" />
		<path
   class="st2"
   d="M141.56,222.61l0.32-0.52c0.66,0.68,1.88,1.2,3.16,1.2c1.92,0,2.77-0.83,2.77-1.88    c0-2.87-5.98-1.15-5.98-4.68c0-1.36,1.04-2.55,3.39-2.55c1.05,0,2.15,0.33,2.89,0.86l-0.26,0.56c-0.79-0.55-1.77-0.81-2.63-0.81    c-1.86,0-2.7,0.86-2.7,1.92c0,2.87,5.98,1.18,5.98,4.65c0,1.36-1.08,2.53-3.45,2.53C143.63,223.91,142.26,223.37,141.56,222.61z"
   id="path45" />
		<path
   class="st2"
   d="M159.19,217.49c0,2.01-1.45,3.22-3.86,3.22h-2.74v3.13h-0.7v-9.58h3.44    C157.74,214.25,159.19,215.46,159.19,217.49z M158.48,217.49c0-1.66-1.1-2.6-3.15-2.6h-2.74v5.19h2.74    C157.39,220.07,158.48,219.13,158.48,217.49z"
   id="path47" />
		<path
   class="st2"
   d="M162.58,214.25h0.7v9.58h-0.7V214.25z"
   id="path49" />
		<path
   class="st2"
   d="M166.72,219.05c0-2.79,2.12-4.86,4.97-4.86c1.35,0,2.57,0.44,3.41,1.33l-0.44,0.45    c-0.82-0.81-1.82-1.14-2.94-1.14c-2.45,0-4.3,1.81-4.3,4.22c0,2.41,1.85,4.22,4.3,4.22c1.12,0,2.12-0.34,2.94-1.15l0.44,0.45    c-0.84,0.89-2.05,1.34-3.41,1.34C168.85,223.91,166.72,221.84,166.72,219.05z"
   id="path51" />
		<path
   class="st2"
   d="M185.08,223.21v0.63h-6.61v-9.58h6.41v0.63h-5.71v3.78h5.11v0.62h-5.11v3.93H185.08z"
   id="path53" />
		<path
   class="st2"
   d="M199.13,221.14h-5.56l-1.22,2.7h-0.75l4.41-9.58h0.7l4.41,9.58h-0.75L199.13,221.14z M198.87,220.55    l-2.52-5.53l-2.51,5.53H198.87z"
   id="path55" />
		<path
   class="st2"
   d="M211.68,214.25v9.58h-0.58l-6.53-8.32v8.32h-0.7v-9.58h0.59l6.52,8.32v-8.32H211.68z"
   id="path57" />
		<path
   class="st2"
   d="M216.05,214.25h3.79c3.04,0,5.09,2,5.09,4.79c0,2.79-2.05,4.79-5.09,4.79h-3.79V214.25z M219.79,223.21    c2.71,0,4.45-1.72,4.45-4.16c0-2.44-1.74-4.16-4.45-4.16h-3.04v8.32H219.79z"
   id="path59" />
		<path
   class="st2"
   d="M240.23,217.49c0,2.01-1.45,3.22-3.86,3.22h-2.74v3.13h-0.7v-9.58h3.44    C238.78,214.25,240.23,215.46,240.23,217.49z M239.52,217.49c0-1.66-1.09-2.6-3.15-2.6h-2.74v5.19h2.74    C238.42,220.07,239.52,219.13,239.52,217.49z"
   id="path61" />
		<path
   class="st2"
   d="M249.06,221.14h-5.56l-1.22,2.7h-0.75l4.41-9.58h0.7l4.41,9.58h-0.75L249.06,221.14z M248.8,220.55    l-2.52-5.53l-2.5,5.53H248.8z"
   id="path63" />
		<path
   class="st2"
   d="M253.81,214.25h0.7v8.95h5.52v0.63h-6.22V214.25z"
   id="path65" />
		<path
   class="st2"
   d="M262.84,214.25h0.7v8.95h5.52v0.63h-6.22V214.25z"
   id="path67" />
		<path
   class="st2"
   d="M271.88,214.25h0.7v9.58h-0.7V214.25z"
   id="path69" />
		<path
   class="st2"
   d="M282.87,221.14h-5.56l-1.22,2.7h-0.75l4.41-9.58h0.7l4.41,9.58h-0.75L282.87,221.14z M282.61,220.55    l-2.52-5.53l-2.51,5.53H282.61z"
   id="path71" />
		<path
   class="st2"
   d="M288.98,214.88h-3.45v-0.63h7.6v0.63h-3.45v8.95h-0.7V214.88z"
   id="path73" />
		<path
   class="st2"
   d="M295.88,214.25h0.7v9.58h-0.7V214.25z"
   id="path75" />
		<path
   class="st2"
   d="M308.47,214.25l-4.27,9.58h-0.7l-4.27-9.58H300l3.87,8.68l3.87-8.68H308.47z"
   id="path77" />
		<path
   class="st2"
   d="M317.66,223.21v0.63h-6.61v-9.58h6.41v0.63h-5.71v3.78h5.11v0.62h-5.11v3.93H317.66z"
   id="path79" />
		<path
   class="st2"
   d="M324.86,219.05c0-2.79,2.12-4.86,4.97-4.86c1.35,0,2.57,0.44,3.41,1.33l-0.44,0.45    c-0.82-0.81-1.82-1.14-2.94-1.14c-2.45,0-4.3,1.81-4.3,4.22c0,2.41,1.85,4.22,4.3,4.22c1.12,0,2.12-0.34,2.94-1.15l0.44,0.45    c-0.83,0.89-2.05,1.34-3.41,1.34C326.98,223.91,324.86,221.84,324.86,219.05z"
   id="path81" />
		<path
   class="st2"
   d="M342.28,221.14h-5.56l-1.22,2.7h-0.75l4.41-9.58h0.7l4.41,9.58h-0.75L342.28,221.14z M342.02,220.55    l-2.52-5.53l-2.51,5.53H342.02z"
   id="path83" />
		<path
   class="st2"
   d="M353.68,223.84l-2.29-3.2c-0.3,0.04-0.6,0.07-0.93,0.07h-2.74v3.13h-0.7v-9.58h3.44    c2.41,0,3.86,1.2,3.86,3.23c0,1.52-0.82,2.57-2.25,3l2.4,3.35H353.68z M350.46,220.09c2.05,0,3.15-0.96,3.15-2.6    c0-1.66-1.09-2.6-3.15-2.6h-2.74v5.2H350.46z"
   id="path85" />
		<path
   class="st2"
   d="M364.52,223.21v0.63h-6.61v-9.58h6.41v0.63h-5.71v3.78h5.11v0.62h-5.11v3.93H364.52z"
   id="path87" />
	</g>
</g>
</svg>
